<svg width="14" height="16" viewBox="0 0 14 16" fill="none" xmlns="http://www.w3.org/2000/svg">
<path d="M11 5C11 3.93913 10.5786 2.92172 9.82843 2.17157C9.07828 1.42143 8.06087 1 7 1C5.93913 1 4.92172 1.42143 4.17157 2.17157C3.42143 2.92172 3 3.93913 3 5C3 9.66667 1 11 1 11H13C13 11 11 9.66667 11 5Z" stroke="white" stroke-width="1.3" stroke-linecap="round" stroke-linejoin="round"/>
<path d="M8.5 14.54C8.37297 14.7834 8.19064 14.9853 7.97126 15.1257C7.75189 15.2661 7.50316 15.34 7.25 15.34C6.99684 15.34 6.74811 15.2661 6.52874 15.1257C6.30936 14.9853 6.12703 14.7834 6 14.54" stroke="white" stroke-width="1.3" stroke-linecap="round" stroke-linejoin="round"/>
</svg>
