<svg width="12" height="12" viewBox="0 0 12 12" fill="none" xmlns="http://www.w3.org/2000/svg">
<path d="M7.4431 1.06682L7.70087 0.486834C7.77852 0.312154 7.69984 0.107568 7.52513 0.0299433C7.35041 -0.0477286 7.14587 0.0309745 7.06824 0.205678L6.69807 1.03855H5.30183L4.93165 0.205654C4.85403 0.0309745 4.64944 -0.0477286 4.47476 0.0299198C4.30008 0.107545 4.2214 0.312131 4.29903 0.486811L4.55679 1.0668C3.86771 1.20203 3.34613 1.81037 3.34613 2.53851V3.11542H8.65379V2.53851C8.65377 1.81042 8.13219 1.20203 7.4431 1.06682Z" fill="#777777"/>
<path d="M11.6538 6.11539H9.57684V5.39568C10.6218 5.22922 11.423 4.32186 11.423 3.2308V2.76927C11.423 2.57811 11.268 2.42312 11.0768 2.42312C10.8857 2.42312 10.7307 2.57811 10.7307 2.76927V3.2308C10.7307 3.93875 10.2376 4.53329 9.57686 4.69004V4.38465C9.57686 4.06653 9.31806 3.80774 8.99995 3.80774H6.34612V7.84616C6.34612 8.03732 6.19113 8.19231 5.99997 8.19231C5.80879 8.19231 5.65382 8.03732 5.65382 7.84616V3.80771H3C2.68188 3.80771 2.42308 4.06651 2.42308 4.38463V4.69002C1.76238 4.53327 1.26926 3.93873 1.26926 3.23078V2.76924C1.26926 2.57809 1.11426 2.4231 0.923109 2.4231C0.731953 2.4231 0.576961 2.57809 0.576961 2.76924V3.23078C0.576961 4.32184 1.37817 5.22918 2.42311 5.39565V6.11537H0.346148C0.154992 6.11537 0 6.27036 0 6.46152C0 6.65268 0.154992 6.80767 0.346148 6.80767H2.42306V7.52739C1.37812 7.69384 0.576914 8.6012 0.576914 9.69226V10.1538C0.576914 10.345 0.731906 10.4999 0.923062 10.4999C1.11422 10.4999 1.26921 10.345 1.26921 10.1538V9.69226C1.26921 8.98431 1.76233 8.38977 2.42304 8.23302V8.42303C2.42306 10.3954 4.02766 12 5.99995 12C7.97224 12 9.57684 10.3954 9.57684 8.42307V8.23307C10.2375 8.38982 10.7307 8.98436 10.7307 9.69231V10.1538C10.7307 10.345 10.8857 10.5 11.0768 10.5C11.268 10.5 11.423 10.345 11.423 10.1538V9.69231C11.423 8.60125 10.6218 7.69391 9.57681 7.52743V6.80771H11.6537C11.8449 6.80771 11.9999 6.65272 11.9999 6.46157C11.9999 6.27041 11.8449 6.11539 11.6538 6.11539Z" fill="#777777"/>
</svg>
