<svg width="14" height="10" viewBox="0 0 14 10" fill="none" xmlns="http://www.w3.org/2000/svg">
<mask id="mask0" mask-type="alpha" maskUnits="userSpaceOnUse" x="0" y="0" width="14" height="10">
<rect width="14" height="10" rx="1" fill="white"/>
</mask>
<g mask="url(#mask0)">
<rect width="14" height="10" fill="#0A17A7"/>
<path fill-rule="evenodd" clip-rule="evenodd" d="M-0.641002 -0.958252L5.33331 3.07147V-0.666696H8.66665V3.07157L14.6411 -0.958248L15.3867 0.147135L10.663 3.3333H14V6.66664H10.6634L15.3871 9.85281L14.6415 10.9582L8.66665 6.92813V10.6666H5.33331V6.92822L-0.641372 10.9582L-1.38696 9.85281L3.33674 6.66664H-2.21729e-05V3.3333H3.3371L-1.38659 0.147131L-0.641002 -0.958252Z" fill="white"/>
<path d="M9.33423 3.1661L15.6669 -1" stroke="#DB1F35" stroke-width="0.666667" stroke-linecap="round"/>
<path d="M10.0061 6.84863L15.683 10.675" stroke="#DB1F35" stroke-width="0.666667" stroke-linecap="round"/>
<path d="M4.00305 3.15527L-1.91846 -0.835449" stroke="#DB1F35" stroke-width="0.666667" stroke-linecap="round"/>
<path d="M4.6453 6.80249L-1.91846 11.1553" stroke="#DB1F35" stroke-width="0.666667" stroke-linecap="round"/>
<path fill-rule="evenodd" clip-rule="evenodd" d="M0 6H6V10H8V6H14V4H8V0H6V4H0V6Z" fill="#E6273E"/>
</g>
</svg>
