<svg width="184" height="75" viewBox="0 0 184 75" fill="none" xmlns="http://www.w3.org/2000/svg">
<path d="M29 22.1894C29 20.0591 29.569 18.1953 30.7069 16.8639C31.8448 15.7988 33.2672 15 35.5431 15H55.4569C56.3103 15 57.1638 15 58.0172 15.2662C58.8707 15.5326 59.4397 15.7988 60.2931 16.3314C61.431 17.1302 62 18.7278 62 20.3255C62 22.1894 61.431 23.5207 60.2931 24.5858C59.1552 25.6509 57.7328 25.9171 55.7414 25.9171H41.5172V28.5799C38.3879 28.5799 35.8276 29.3787 33.8362 30.9764C31.8448 32.5739 30.1379 35.2367 29 37.3668V22.1894ZM29 53.6094V43.2249C29 41.8935 29.2845 40.5621 29.8534 39.2308C30.4224 37.8994 30.9914 36.8343 31.8448 35.7692C32.6983 34.7041 33.8362 33.9053 34.9741 33.3727C36.1121 32.8402 37.5345 32.3077 38.9569 32.3077C39.2414 32.3077 39.8103 32.3077 40.0948 32.3077C40.3793 32.3077 40.9483 32.3077 41.2328 32.3077H54.0345C56.0259 32.3077 57.4483 32.5739 58.3017 33.3727C59.1552 34.1715 60.0086 34.9704 60.2931 36.0355C60.5776 37.1006 60.5776 38.1656 60.2931 39.2308C60.0086 40.2958 59.4397 41.0947 58.8707 41.6272C57.7328 42.6923 56.3103 42.9585 54.0345 42.9585H41.2328V53.3432C41.2328 54.6745 40.9483 55.7396 40.6638 56.5384C40.3793 57.3373 39.8103 58.1361 39.2414 58.6686C38.6724 59.2011 38.1035 59.7337 37.25 59.7337C36.681 60 35.8276 60 35.2586 60C32.9828 60 31.2759 59.2011 30.4224 57.8697C29.569 57.0709 29 55.4733 29 53.6094Z" fill="#FCFCFC"/>
<path d="M64 53.1579V25.2631C64 22.3684 64.8693 20 66.3182 17.8947C67.767 16.0527 70.0852 15 73.2727 15C74.7216 15 76.1705 15.2631 77.0398 15.7895C78.1989 16.3158 79.0682 16.8421 79.9375 17.8947C80.8068 18.6842 81.3864 19.7368 82.2557 21.0526C82.8352 22.3684 83.4148 23.4211 83.9943 25L86.6023 32.1052C86.892 32.8948 87.1818 33.9474 87.7614 34.7368C88.0511 35.5264 88.3409 36.5789 88.6307 37.3684C88.9205 38.1579 89.2102 38.9474 89.5 39.4736C89.7898 40 89.7898 40.5263 90.0795 40.7894C91.2386 43.9474 91.8182 46.8422 92.108 49.2105C92.3977 51.8421 92.108 53.9474 91.5284 56.0526C91.2386 56.8421 90.6591 57.3684 90.0795 57.8947C88.9205 58.4211 88.3409 58.6842 87.4716 58.6842C86.892 58.6842 86.0227 58.4211 85.733 58.1579C85.1534 57.8948 84.8636 57.3684 84.5739 57.1053C84.2841 56.579 83.9943 56.0526 83.7045 55.5263C83.4148 55 83.4148 54.4737 83.125 53.9474L76.1705 35V52.8947C76.1705 55 75.5909 56.8421 74.7216 57.8947C73.8523 58.9474 72.1136 59.7369 70.0852 59.7369C68.0568 59.7369 66.3182 59.2105 65.4489 57.8947C64.5795 56.579 64 55.2632 64 53.1579ZM90.9489 36.8422L93.5568 30L95.2954 25C95.5852 23.6842 96.1648 22.6315 96.7443 21.3158C97.3239 20.2632 97.9034 19.2105 98.7727 18.1579C99.642 17.3685 100.511 16.5789 101.67 16.0527C102.83 15.5263 104.278 15.2631 105.727 15.2631C107.466 15.2631 108.914 15.5263 110.073 16.0527C111.232 16.5789 112.102 17.3685 112.971 18.421C113.551 19.4737 114.13 20.5263 114.42 21.579C114.71 22.8948 115 23.9473 115 25.5263V53.1579C115 54.2105 115 55 114.711 55.7895C114.42 56.579 114.131 57.3684 113.552 57.8947C112.971 58.4211 112.392 58.9473 111.523 59.4737C110.653 60 109.784 60 108.625 60C107.466 60 106.596 59.7369 105.727 59.4737C104.857 59.2105 104.278 58.6842 103.989 57.8947C103.698 57.1053 103.119 56.579 102.83 55.7895C102.539 55 102.539 53.9474 102.539 53.1579V35L96.7443 50.7894C96.1648 52.3685 95.2955 53.9474 94.4261 55C93.5568 56.0526 92.6875 57.1053 91.5284 57.8947C92.108 56.3158 92.3977 54.4737 92.6875 52.6316C92.9773 50.7894 92.9773 48.9474 92.6875 47.1053C92.3977 45.2632 92.3977 43.421 91.8182 41.8421C92.108 40 91.5284 38.4211 90.9489 36.8422Z" fill="#FCFCFC"/>
<path d="M118 20.5588C118 18.7058 118.574 17.1176 119.721 16.3235C120.868 15.5294 122.302 15 124.309 15H150.69C152.698 15 154.419 15.5294 155.279 16.3235C156.426 17.1176 157 18.7058 157 20.2941C157 22.1471 156.426 23.4706 155.279 24.5294C154.132 25.5883 152.698 25.8529 150.69 25.8529H144.669C142.375 25.8529 140.654 26.1177 138.934 26.647C137.499 27.1765 136.066 27.7059 134.919 28.5C133.772 29.2941 132.911 30.0882 132.338 31.1471C131.764 32.2059 131.191 33.2647 130.905 34.3236V26.1177H123.735C121.728 26.1177 120.008 25.5883 119.147 24.7942C118.574 24 118 22.4118 118 20.5588ZM143.522 28.7647V53.1177C143.522 54.1764 143.522 54.9705 143.235 55.7647C142.948 56.5588 142.661 57.3529 142.088 57.8824C141.514 58.4118 140.941 58.9411 140.367 59.4706C139.507 59.7353 138.647 60 137.499 60C136.352 60 135.493 59.7353 134.632 59.4706C133.772 59.2059 133.199 58.6765 132.625 57.8824C132.052 57.3529 131.764 56.5588 131.478 55.7647C131.191 54.9705 131.191 53.9118 131.191 53.1177V39.8823C131.191 36.4412 132.338 33.7941 134.346 31.9412C136.926 30.0882 139.794 29.0294 143.522 28.7647Z" fill="#FCFCFC"/>
</svg>
