<?xml version="1.0" encoding="utf-8"?>
<!-- Generator: Adobe Illustrator 19.0.0, SVG Export Plug-In . SVG Version: 6.00 Build 0)  -->
<svg version="1.1" id="Layer_1" xmlns="http://www.w3.org/2000/svg" xmlns:xlink="http://www.w3.org/1999/xlink" x="0px" y="0px"
	 viewBox="0 0 64 64" style="enable-background:new 0 0 64 64;" xml:space="preserve">
<style type="text/css">
	.st0{fill:#FCFCFC;}
</style>
<g id="XMLID_1_">
	<path id="XMLID_3_" class="st0" d="M10,25.1c0-0.8,0.2-1.5,0.6-2c0.4-0.4,0.9-0.7,1.7-0.7h7c0.3,0,0.6,0,0.9,0.1
		c0.3,0.1,0.5,0.2,0.8,0.4c0.4,0.3,0.6,0.9,0.6,1.5c0,0.7-0.2,1.2-0.6,1.6c-0.4,0.4-0.9,0.5-1.6,0.5h-5v1c-1.1,0-2,0.3-2.7,0.9
		S10.4,30,10,30.8V25.1z M10,36.9V33c0-0.5,0.1-1,0.3-1.5c0.2-0.5,0.4-0.9,0.7-1.3c0.3-0.4,0.7-0.7,1.1-0.9c0.4-0.2,0.9-0.4,1.4-0.4
		c0.1,0,0.3,0,0.4,0c0.1,0,0.3,0,0.4,0h4.5c0.7,0,1.2,0.1,1.5,0.4s0.6,0.6,0.7,1c0.1,0.4,0.1,0.8,0,1.2c-0.1,0.4-0.3,0.7-0.5,0.9
		c-0.4,0.4-0.9,0.5-1.7,0.5h-4.5v3.9c0,0.5-0.1,0.9-0.2,1.2c-0.1,0.3-0.3,0.6-0.5,0.8c-0.2,0.2-0.4,0.4-0.7,0.4
		c-0.2,0.1-0.5,0.1-0.7,0.1c-0.8,0-1.4-0.3-1.7-0.8C10.2,38.2,10,37.6,10,36.9z"/>
	<path id="XMLID_6_" class="st0" d="M22.4,36.9V26.3c0-1.1,0.3-2,0.8-2.8c0.5-0.7,1.3-1.1,2.4-1.1c0.5,0,1,0.1,1.3,0.3
		c0.4,0.2,0.7,0.4,1,0.8c0.3,0.3,0.5,0.7,0.8,1.2c0.2,0.5,0.4,0.9,0.6,1.5l0.9,2.7c0.1,0.3,0.2,0.7,0.4,1c0.1,0.3,0.2,0.7,0.3,1
		c0.1,0.3,0.2,0.6,0.3,0.8c0.1,0.2,0.1,0.4,0.2,0.5c0.4,1.2,0.6,2.3,0.7,3.2c0.1,1,0,1.8-0.2,2.6c-0.1,0.3-0.3,0.5-0.5,0.7
		C31,38.9,30.8,39,30.5,39c-0.2,0-0.5-0.1-0.6-0.2c-0.2-0.1-0.3-0.3-0.4-0.4c-0.1-0.2-0.2-0.4-0.3-0.6c-0.1-0.2-0.1-0.4-0.2-0.6
		L26.6,30v6.8c0,0.8-0.2,1.5-0.5,1.9s-0.9,0.7-1.6,0.7s-1.3-0.2-1.6-0.7S22.4,37.7,22.4,36.9z M31.7,30.7l0.9-2.6l0.6-1.9
		c0.1-0.5,0.3-0.9,0.5-1.4c0.2-0.4,0.4-0.8,0.7-1.2c0.3-0.3,0.6-0.6,1-0.8c0.4-0.2,0.9-0.3,1.4-0.3c0.6,0,1.1,0.1,1.5,0.3
		c0.4,0.2,0.7,0.5,1,0.9c0.2,0.4,0.4,0.8,0.5,1.2c0.1,0.5,0.2,0.9,0.2,1.5v10.5c0,0.4,0,0.7-0.1,1c-0.1,0.3-0.2,0.6-0.4,0.8
		c-0.2,0.2-0.4,0.4-0.7,0.6s-0.6,0.2-1,0.2c-0.4,0-0.7-0.1-1-0.2c-0.3-0.1-0.5-0.3-0.6-0.6s-0.3-0.5-0.4-0.8c-0.1-0.3-0.1-0.7-0.1-1
		V30l-2,6c-0.2,0.6-0.5,1.2-0.8,1.6s-0.6,0.8-1,1.1c0.2-0.6,0.3-1.3,0.4-2c0.1-0.7,0.1-1.4,0-2.1s-0.1-1.4-0.3-2
		C32.1,31.9,31.9,31.3,31.7,30.7z"/>
	<path id="XMLID_9_" class="st0" d="M40.9,24.5c0-0.7,0.2-1.3,0.6-1.6c0.4-0.3,0.9-0.5,1.6-0.5h9.2c0.7,0,1.3,0.2,1.6,0.5
		c0.4,0.3,0.6,0.9,0.6,1.5c0,0.7-0.2,1.2-0.6,1.6c-0.4,0.4-0.9,0.5-1.6,0.5h-2.1c-0.8,0-1.4,0.1-2,0.3c-0.5,0.2-1,0.4-1.4,0.7
		s-0.7,0.6-0.9,1c-0.2,0.4-0.4,0.8-0.5,1.2v-3.1h-2.5c-0.7,0-1.3-0.2-1.6-0.5C41.1,25.8,40.9,25.2,40.9,24.5z M49.8,27.6v9.2
		c0,0.4,0,0.7-0.1,1c-0.1,0.3-0.2,0.6-0.4,0.8c-0.2,0.2-0.4,0.4-0.6,0.6c-0.3,0.1-0.6,0.2-1,0.2c-0.4,0-0.7-0.1-1-0.2
		s-0.5-0.3-0.7-0.6c-0.2-0.2-0.3-0.5-0.4-0.8c-0.1-0.3-0.1-0.7-0.1-1v-5c0-1.3,0.4-2.3,1.1-3C47.5,28.1,48.5,27.7,49.8,27.6z"/>
</g>
</svg>
