<svg width="184" height="75" viewBox="0 0 184 75" fill="none" xmlns="http://www.w3.org/2000/svg">
<path d="M28 19.9882C28 17.6212 28.569 15.5503 29.7069 14.071C30.8448 12.8876 32.2672 12 34.5431 12H54.4569C55.3103 12 56.1638 12 57.0172 12.2958C57.8707 12.5917 58.4397 12.8876 59.2931 13.4793C60.431 14.3668 61 16.142 61 17.9172C61 19.9882 60.431 21.4675 59.2931 22.6509C58.1552 23.8343 56.7328 24.1301 54.7414 24.1301H40.5172V27.0887C37.3879 27.0887 34.8276 27.9763 32.8362 29.7515C30.8448 31.5266 29.1379 34.4852 28 36.852V19.9882ZM28 54.8994V43.3609C28 41.8817 28.2845 40.4024 28.8534 38.9231C29.4224 37.4438 29.9914 36.2603 30.8448 35.0769C31.6983 33.8935 32.8362 33.0059 33.9741 32.4142C35.1121 31.8224 36.5345 31.2308 37.9569 31.2308C38.2414 31.2308 38.8103 31.2308 39.0948 31.2308C39.3793 31.2308 39.9483 31.2308 40.2328 31.2308H53.0345C55.0259 31.2308 56.4483 31.5266 57.3017 32.4142C58.1552 33.3017 59.0086 34.1894 59.2931 35.3727C59.5776 36.5562 59.5776 37.7396 59.2931 38.9231C59.0086 40.1064 58.4397 40.9941 57.8707 41.5857C56.7328 42.7692 55.3103 43.065 53.0345 43.065H40.2328V54.6035C40.2328 56.0828 39.9483 57.2662 39.6638 58.1538C39.3793 59.0414 38.8103 59.929 38.2414 60.5207C37.6724 61.1123 37.1035 61.7041 36.25 61.7041C35.681 62 34.8276 62 34.2586 62C31.9828 62 30.2759 61.1123 29.4224 59.633C28.569 58.7455 28 56.9704 28 54.8994Z" fill="#FCFCFC"/>
<path d="M63 54.3977V23.4035C63 20.1871 63.8693 17.5555 65.3182 15.2163C66.767 13.1696 69.0852 12 72.2727 12C73.7216 12 75.1705 12.2924 76.0398 12.8772C77.1989 13.462 78.0682 14.0468 78.9375 15.2163C79.8068 16.0935 80.3864 17.2632 81.2557 18.7251C81.8352 20.1871 82.4148 21.3568 82.9943 23.1111L85.6023 31.0058C85.892 31.8831 86.1818 33.0526 86.7614 33.9298C87.0511 34.8071 87.3409 35.9766 87.6307 36.8538C87.9205 37.731 88.2102 38.6082 88.5 39.1929C88.7898 39.7778 88.7898 40.3626 89.0795 40.6549C90.2386 44.1637 90.8182 47.3802 91.108 50.0117C91.3977 52.9357 91.108 55.2749 90.5284 57.614C90.2386 58.4912 89.6591 59.076 89.0795 59.6608C87.9205 60.2456 87.3409 60.538 86.4716 60.538C85.892 60.538 85.0227 60.2457 84.733 59.9532C84.1534 59.6608 83.8636 59.076 83.5739 58.7837C83.2841 58.1988 82.9943 57.614 82.7045 57.0292C82.4148 56.4445 82.4148 55.8597 82.125 55.2749L75.1705 34.2222V54.1052C75.1705 56.4445 74.5909 58.4912 73.7216 59.6608C72.8523 60.8305 71.1136 61.7076 69.0852 61.7076C67.0568 61.7076 65.3182 61.1228 64.4489 59.6608C63.5795 58.1988 63 56.7368 63 54.3977ZM89.9489 36.2691L92.5568 28.6666L94.2954 23.1111C94.5852 21.6491 95.1648 20.4795 95.7443 19.0175C96.3239 17.848 96.9034 16.6783 97.7727 15.5088C98.642 14.6316 99.5114 13.7543 100.67 13.1696C101.83 12.5848 103.278 12.2924 104.727 12.2924C106.466 12.2924 107.914 12.5848 109.073 13.1696C110.232 13.7543 111.102 14.6316 111.971 15.8012C112.551 16.9708 113.13 18.1403 113.42 19.31C113.71 20.772 114 21.9415 114 23.6959V54.3977C114 55.5672 114 56.4445 113.711 57.3217C113.42 58.1988 113.131 59.076 112.552 59.6608C111.971 60.2456 111.392 60.8304 110.523 61.4152C109.653 62 108.784 62 107.625 62C106.466 62 105.596 61.7076 104.727 61.4152C103.857 61.1228 103.278 60.538 102.989 59.6608C102.698 58.7837 102.119 58.1988 101.83 57.3217C101.539 56.4445 101.539 55.2749 101.539 54.3977V34.2222L95.7443 51.7661C95.1648 53.5205 94.2955 55.2749 93.4261 56.4445C92.5568 57.614 91.6875 58.7837 90.5284 59.6608C91.108 57.9065 91.3977 55.8597 91.6875 53.8129C91.9773 51.7661 91.9773 49.7193 91.6875 47.6725C91.3977 45.6257 91.3977 43.5789 90.8182 41.8246C91.108 39.7778 90.5284 38.0234 89.9489 36.2691Z" fill="#FCFCFC"/>
<path d="M117 18.1764C117 16.1176 117.574 14.3529 118.721 13.4706C119.868 12.5883 121.302 12 123.309 12H149.69C151.698 12 153.419 12.5883 154.279 13.4706C155.426 14.3529 156 16.1176 156 17.8824C156 19.9412 155.426 21.4118 154.279 22.5882C153.132 23.7647 151.698 24.0588 149.69 24.0588H143.669C141.375 24.0588 139.654 24.353 137.934 24.9411C136.499 25.5294 135.066 26.1177 133.919 27C132.772 27.8823 131.911 28.7647 131.338 29.9412C130.764 31.1177 130.191 32.2941 129.905 33.4706V24.353H122.735C120.728 24.353 119.008 23.7647 118.147 22.8824C117.574 22 117 20.2353 117 18.1764ZM142.522 27.2941V54.353C142.522 55.5294 142.522 56.4117 142.235 57.2941C141.948 58.1765 141.661 59.0588 141.088 59.6471C140.514 60.2353 139.941 60.8235 139.367 61.4117C138.507 61.7059 137.647 62 136.499 62C135.352 62 134.493 61.7059 133.632 61.4117C132.772 61.1177 132.199 60.5294 131.625 59.6471C131.052 59.0588 130.764 58.1765 130.478 57.2941C130.191 56.4117 130.191 55.2353 130.191 54.353V39.6471C130.191 35.8235 131.338 32.8824 133.346 30.8235C135.926 28.7647 138.794 27.5882 142.522 27.2941Z" fill="#FCFCFC"/>
</svg>
