<svg width="184" height="95" viewBox="0 0 184 95" fill="none" xmlns="http://www.w3.org/2000/svg">
<path d="M28.75 30.5792C28.75 28.3236 29.325 26.3501 30.475 24.9404C31.625 23.8126 33.0625 22.9668 35.3625 22.9668H55.4875C56.35 22.9668 57.2125 22.9668 58.075 23.2487C58.9375 23.5307 59.5125 23.8126 60.375 24.3765C61.525 25.2223 62.1 26.9139 62.1 28.6056C62.1 30.5792 61.525 31.9889 60.375 33.1166C59.225 34.2444 57.7875 34.5263 55.775 34.5263H41.4V37.3457C38.2375 37.3457 35.65 38.1915 33.6375 39.8832C31.625 41.5748 29.9 44.3942 28.75 46.6497V30.5792ZM28.75 63.848V52.8524C28.75 51.4427 29.0375 50.033 29.6125 48.6233C30.1875 47.2136 30.7625 46.0858 31.625 44.9581C32.4875 43.8303 33.6375 42.9845 34.7875 42.4206C35.9375 41.8567 37.375 41.2929 38.8125 41.2929C39.1 41.2929 39.675 41.2929 39.9625 41.2929C40.25 41.2929 40.825 41.2929 41.1125 41.2929H54.05C56.0625 41.2929 57.5 41.5748 58.3625 42.4206C59.225 43.2664 60.0875 44.1123 60.375 45.24C60.6625 46.3678 60.6625 47.4955 60.375 48.6233C60.0875 49.751 59.5125 50.5969 58.9375 51.1607C57.7875 52.2885 56.35 52.5704 54.05 52.5704H41.1125V63.5661C41.1125 64.9758 40.825 66.1035 40.5375 66.9493C40.25 67.7952 39.675 68.641 39.1 69.2049C38.525 69.7687 37.95 70.3326 37.0875 70.3326C36.5125 70.6146 35.65 70.6146 35.075 70.6146C32.775 70.6146 31.05 69.7687 30.1875 68.359C29.325 67.5132 28.75 65.8216 28.75 63.848Z" fill="#FCFCFC"/>
<path d="M64.4 63.848V33.9624C64.4 30.8611 65.2625 28.3236 66.7 26.0681C68.1375 24.0946 70.4375 22.9668 73.6 22.9668C75.0375 22.9668 76.475 23.2487 77.3375 23.8126C78.4875 24.3765 79.35 24.9404 80.2125 26.0681C81.075 26.9139 81.65 28.0417 82.5125 29.4514C83.0875 30.8611 83.6625 31.9889 84.2375 33.6805L86.825 41.2928C87.1125 42.1387 87.4 43.2664 87.975 44.1122C88.2625 44.9581 88.55 46.0858 88.8375 46.9316C89.125 47.7775 89.4125 48.6233 89.7 49.1871C89.9875 49.751 89.9875 50.3149 90.275 50.5968C91.425 53.9801 92 57.0815 92.2875 59.6189C92.575 62.4383 92.2875 64.6938 91.7125 66.9493C91.425 67.7951 90.85 68.359 90.275 68.9229C89.125 69.4868 88.55 69.7687 87.6875 69.7687C87.1125 69.7687 86.25 69.4868 85.9625 69.2048C85.3875 68.9229 85.1 68.359 84.8125 68.0771C84.525 67.5132 84.2375 66.9493 83.95 66.3854C83.6625 65.8216 83.6625 65.2577 83.375 64.6938L76.475 44.3942V63.566C76.475 65.8216 75.9 67.7951 75.0375 68.9229C74.175 70.0507 72.45 70.8965 70.4375 70.8965C68.425 70.8965 66.7 70.3326 65.8375 68.9229C64.975 67.5132 64.4 66.1035 64.4 63.848ZM91.1375 46.3678L93.725 39.0373L95.45 33.6805C95.7375 32.2708 96.3125 31.143 96.8875 29.7333C97.4625 28.6056 98.0375 27.4778 98.9 26.3501C99.7625 25.5043 100.625 24.6584 101.775 24.0946C102.925 23.5307 104.362 23.2487 105.8 23.2487C107.525 23.2487 108.962 23.5307 110.112 24.0946C111.262 24.6584 112.125 25.5043 112.987 26.632C113.562 27.7598 114.137 28.8875 114.425 30.0153C114.712 31.425 115 32.5527 115 34.2444V63.848C115 64.9757 115 65.8216 114.713 66.6674C114.425 67.5132 114.138 68.359 113.563 68.9229C112.987 69.4868 112.412 70.0506 111.55 70.6145C110.687 71.1784 109.825 71.1784 108.675 71.1784C107.525 71.1784 106.662 70.8965 105.8 70.6145C104.937 70.3326 104.362 69.7687 104.075 68.9229C103.787 68.0771 103.212 67.5132 102.925 66.6674C102.637 65.8216 102.637 64.6938 102.637 63.848V44.3942L96.8875 61.3105C96.3125 63.0022 95.45 64.6938 94.5875 65.8216C93.725 66.9493 92.8625 68.0771 91.7125 68.9229C92.2875 67.2313 92.575 65.2577 92.8625 63.2841C93.15 61.3105 93.15 59.337 92.8625 57.3634C92.575 55.3898 92.575 53.4162 92 51.7246C92.2875 49.751 91.7125 48.0594 91.1375 46.3678Z" fill="#FCFCFC"/>
<path d="M117.587 28.8875C117.587 26.9139 118.162 25.2223 119.312 24.3765C120.462 23.5307 121.9 22.9668 123.912 22.9668H150.362C152.375 22.9668 154.1 23.5307 154.963 24.3765C156.113 25.2223 156.688 26.9139 156.688 28.6056C156.688 30.5792 156.113 31.9889 154.963 33.1166C153.813 34.2444 152.375 34.5263 150.362 34.5263H144.325C142.025 34.5263 140.3 34.8083 138.575 35.3721C137.137 35.936 135.7 36.4999 134.55 37.3457C133.4 38.1915 132.537 39.0373 131.962 40.1651C131.387 41.2929 130.812 42.4206 130.525 43.5484V34.8083H123.337C121.325 34.8083 119.6 34.2444 118.737 33.3986C118.162 32.5527 117.587 30.8611 117.587 28.8875ZM143.175 37.6276V63.5661C143.175 64.6938 143.175 65.5396 142.887 66.3855C142.6 67.2313 142.312 68.0771 141.737 68.641C141.162 69.2049 140.587 69.7687 140.012 70.3326C139.15 70.6146 138.287 70.8965 137.137 70.8965C135.987 70.8965 135.125 70.6146 134.262 70.3326C133.4 70.0507 132.825 69.4868 132.25 68.641C131.675 68.0771 131.387 67.2313 131.1 66.3855C130.812 65.5396 130.812 64.4119 130.812 63.5661V49.4691C130.812 45.8039 131.962 42.9845 133.975 41.0109C136.562 39.0373 139.437 37.9096 143.175 37.6276Z" fill="#FCFCFC"/>
</svg>
