<svg width="198" height="145" viewBox="0 0 198 145" fill="none" xmlns="http://www.w3.org/2000/svg">
<path d="M30.9375 58.8668C30.9375 56.4617 31.5563 54.3572 32.7938 52.854C34.0313 51.6514 35.5781 50.7495 38.0531 50.7495H59.7094C60.6375 50.7495 61.5656 50.7495 62.4938 51.0502C63.4219 51.3508 64.0406 51.6514 64.9688 52.2527C66.2063 53.1546 66.825 54.9585 66.825 56.7623C66.825 58.8668 66.2063 60.37 64.9688 61.5725C63.7313 62.7751 62.1844 63.0757 60.0188 63.0757H44.55V66.0821C41.1469 66.0821 38.3625 66.9841 36.1969 68.7879C34.0312 70.5917 32.175 73.5981 30.9375 76.0033V58.8668ZM30.9375 94.3423V82.6173C30.9375 81.1141 31.2469 79.6109 31.8656 78.1077C32.4844 76.6045 33.1031 75.402 34.0313 74.1994C34.9594 72.9969 36.1969 72.0949 37.4344 71.4937C38.6719 70.8924 40.2188 70.2911 41.7656 70.2911C42.075 70.2911 42.6937 70.2911 43.0031 70.2911C43.3125 70.2911 43.9313 70.2911 44.2406 70.2911H58.1625C60.3281 70.2911 61.875 70.5917 62.8031 71.4937C63.7313 72.3956 64.6594 73.2975 64.9688 74.5001C65.2781 75.7026 65.2781 76.9052 64.9688 78.1077C64.6594 79.3103 64.0406 80.2122 63.4219 80.8135C62.1844 82.0161 60.6375 82.3167 58.1625 82.3167H44.2406V94.0416C44.2406 95.5448 43.9313 96.7474 43.6219 97.6493C43.3125 98.5512 42.6938 99.4532 42.075 100.054C41.4563 100.656 40.8375 101.257 39.9094 101.257C39.2906 101.558 38.3625 101.558 37.7437 101.558C35.2687 101.558 33.4125 100.656 32.4844 99.1525C31.5563 98.2506 30.9375 96.4468 30.9375 94.3423Z" fill="#FCFCFC"/>
<path d="M69.3 94.3423V62.4745C69.3 59.1674 70.2281 56.4617 71.775 54.0566C73.3219 51.9521 75.7969 50.7495 79.2 50.7495C80.7469 50.7495 82.2937 51.0502 83.2219 51.6514C84.4594 52.2527 85.3875 52.854 86.3156 54.0566C87.2437 54.9585 87.8625 56.161 88.7906 57.6642C89.4094 59.1674 90.0281 60.37 90.6469 62.1738L93.4313 70.2911C93.7406 71.193 94.05 72.3956 94.6687 73.2975C94.9781 74.1994 95.2875 75.402 95.5969 76.3039C95.9062 77.2058 96.2156 78.1077 96.525 78.709C96.8344 79.3103 96.8344 79.9116 97.1437 80.2122C98.3812 83.8199 99 87.1269 99.3094 89.8327C99.6187 92.8391 99.3094 95.2442 98.6906 97.6493C98.3812 98.5512 97.7625 99.1525 97.1437 99.7538C95.9062 100.355 95.2875 100.656 94.3594 100.656C93.7406 100.656 92.8125 100.355 92.5031 100.054C91.8844 99.7538 91.575 99.1525 91.2656 98.8519C90.9562 98.2506 90.6469 97.6493 90.3375 97.048C90.0281 96.4468 90.0281 95.8455 89.7187 95.2442L82.2937 73.5981V94.0416C82.2937 96.4468 81.675 98.5512 80.7469 99.7538C79.8187 100.956 77.9625 101.858 75.7969 101.858C73.6312 101.858 71.775 101.257 70.8469 99.7538C69.9187 98.2506 69.3 96.7474 69.3 94.3423ZM98.0719 75.7026L100.856 67.886L102.713 62.1738C103.022 60.6706 103.641 59.4681 104.259 57.9649C104.878 56.7623 105.497 55.5598 106.425 54.3572C107.353 53.4553 108.281 52.5533 109.519 51.9521C110.756 51.3508 112.303 51.0502 113.85 51.0502C115.706 51.0502 117.253 51.3508 118.491 51.9521C119.728 52.5533 120.656 53.4553 121.584 54.6578C122.203 55.8604 122.822 57.0629 123.131 58.2655C123.441 59.7687 123.75 60.9713 123.75 62.7751V94.3423C123.75 95.5449 123.75 96.4468 123.441 97.3487C123.131 98.2506 122.822 99.1525 122.203 99.7538C121.584 100.355 120.966 100.956 120.037 101.558C119.109 102.159 118.181 102.159 116.944 102.159C115.706 102.159 114.778 101.858 113.85 101.558C112.922 101.257 112.303 100.656 111.994 99.7538C111.684 98.8519 111.066 98.2506 110.756 97.3487C110.447 96.4468 110.447 95.2442 110.447 94.3423V73.5981L104.259 91.6365C103.641 93.4404 102.713 95.2442 101.784 96.4468C100.856 97.6493 99.9281 98.8519 98.6906 99.7538C99.3094 97.95 99.6187 95.8455 99.9281 93.741C100.237 91.6365 100.237 89.532 99.9281 87.4276C99.6187 85.3231 99.6187 83.2186 99 81.4148C99.3094 79.3103 98.6906 77.5065 98.0719 75.7026Z" fill="#FCFCFC"/>
<path d="M126.534 57.0629C126.534 54.9585 127.153 53.1546 128.391 52.2527C129.628 51.3508 131.175 50.7495 133.341 50.7495H161.803C163.969 50.7495 165.825 51.3508 166.753 52.2527C167.991 53.1546 168.609 54.9585 168.609 56.7623C168.609 58.8668 167.991 60.37 166.753 61.5725C165.516 62.7751 163.969 63.0757 161.803 63.0757H155.306C152.831 63.0757 150.975 63.3764 149.119 63.9777C147.572 64.5789 146.025 65.1802 144.787 66.0821C143.55 66.9841 142.622 67.886 142.003 69.0885C141.384 70.2911 140.766 71.4937 140.456 72.6962V63.3764H132.722C130.556 63.3764 128.7 62.7751 127.772 61.8732C127.153 60.9713 126.534 59.1674 126.534 57.0629ZM154.069 66.3828V94.0416C154.069 95.2442 154.069 96.1461 153.759 97.048C153.45 97.95 153.141 98.8519 152.522 99.4532C151.903 100.054 151.284 100.656 150.666 101.257C149.738 101.558 148.809 101.858 147.572 101.858C146.334 101.858 145.406 101.558 144.478 101.257C143.55 100.956 142.931 100.355 142.312 99.4532C141.694 98.8519 141.384 97.95 141.075 97.048C140.766 96.1461 140.766 94.9436 140.766 94.0416V79.0097C140.766 75.1013 142.003 72.0949 144.169 69.9905C146.953 67.886 150.047 66.6834 154.069 66.3828Z" fill="#FCFCFC"/>
</svg>
