<svg width="190" height="186" viewBox="0 0 190 186" fill="none" xmlns="http://www.w3.org/2000/svg">
<path d="M118.537 52.3046L117 49.695L108.598 54.6134L110.128 57.2231L105.32 65.6677L102.288 65.6887L102.358 75.4067L105.39 75.3857L110.325 83.7604L108.83 86.391L117.301 91.1836L118.803 88.5599L128.546 88.49L130.083 91.0926L138.484 86.1742L136.954 83.5715L141.762 75.1199L144.794 75.0989L144.724 65.3809L141.692 65.4089L136.758 57.0272L138.253 54.4035L129.781 49.604L128.279 52.2346L118.537 52.3046Z" fill="white" stroke="#263238" stroke-width="0.6218" stroke-miterlimit="10" stroke-linecap="round" stroke-linejoin="round"/>
<path d="M123.485 62.6242C127.794 62.5962 131.311 66.0454 131.339 70.3412C131.367 74.637 127.907 78.1422 123.597 78.1702C119.288 78.1982 115.771 74.749 115.743 70.4532C115.715 66.1574 119.175 62.6522 123.485 62.6242Z" fill="white" stroke="#263238" stroke-width="0.6218" stroke-miterlimit="10" stroke-linecap="round" stroke-linejoin="round"/>
<path d="M22.6312 21.8772C22.6312 21.8772 3.56097 38.4866 24.6947 59.6088" stroke="#263238" stroke-width="0.6218" stroke-miterlimit="10" stroke-linecap="round" stroke-linejoin="round" stroke-dasharray="6.22 6.22"/>
<path d="M5.91228 114.223C3.1609 118.889 -2.75599 123.374 1.48339 129.867C4.41025 134.344 10.285 135.94 7.99688 142.299C7.09145 144.818 5.35779 146.728 5.87719 149.562C6.33341 152.031 8.27061 153.976 9.97619 155.676C11.4431 157.139 13.8015 158.517 14.8894 160.308C16.6722 163.225 14.8473 165.422 14.005 168.319C13.1978 171.082 13.0715 174.133 14.6086 176.715C16.6441 180.129 20.6168 180.472 23.2348 182.969C23.2348 182.969 35.2721 190.812 40.1993 176.337C41.3645 172.915 43.0911 169.781 42.2558 165.905C41.6242 162.974 39.4483 160.819 36.9707 159.335C34.3737 157.782 31.5451 157.404 30.8573 154.06C30.4361 152.01 31.2222 149.401 31.2994 147.337C31.3907 144.93 31.4819 142.187 30.1343 140.074C28.5831 137.64 26.0072 137.416 23.6208 136.184C17.6057 133.071 20.8273 127.922 19.9149 122.653C18.5953 115.02 11.1975 115.748 5.99651 114.188L5.91228 114.223Z" fill="#263238"/>
<path d="M10.7061 126.25L33.749 184.802" stroke="white" stroke-width="0.6218" stroke-miterlimit="10" stroke-linecap="round" stroke-linejoin="round"/>
<path d="M11.6818 146.511L20.7852 151.87" stroke="white" stroke-width="0.6218" stroke-miterlimit="10" stroke-linecap="round" stroke-linejoin="round"/>
<path d="M29.4535 173.895L34.3807 165.793" stroke="#FF9900" stroke-width="0.6218" stroke-miterlimit="10" stroke-linecap="round" stroke-linejoin="round"/>
<path d="M17.746 144.139L20.1605 136.779" stroke="white" stroke-width="0.6218" stroke-miterlimit="10" stroke-linecap="round" stroke-linejoin="round"/>
<path d="M25.9581 113.054H72.4088V85.5793L25.9581 92.4988V113.054Z" fill="#FF9900"/>
<path d="M25.2843 185.096L32.5347 177.659H38.6622V185.096H25.2843Z" fill="#263238"/>
<path d="M65.1724 185.096L60.4768 177.659H54.3563V185.096H65.1724Z" fill="#263238"/>
<path d="M68.759 112.914V179.632H49.9695V126.41H47.52L44.0807 179.632H25.2843L28.7305 126.41L29.6079 112.914H68.759Z" fill="white" stroke="#263238" stroke-width="0.3" stroke-miterlimit="10" stroke-linecap="round" stroke-linejoin="round"/>
<path d="M67.3973 87.6292C67.3973 87.6292 69.882 98.9074 83.7582 96.4727C97.6345 94.0379 93.5776 72.7619 93.5776 72.7619H82.8388L82.4457 82.5498C82.4457 82.5498 76.7534 67.8364 69.6153 62.792C65.2706 59.7206 67.3973 87.6292 67.3973 87.6292Z" fill="#FF9900"/>
<path d="M72.2403 83.2075V94.9125" stroke="white" stroke-width="0.6218" stroke-miterlimit="10" stroke-linecap="round" stroke-linejoin="round"/>
<path d="M40.08 110.703L43.9825 114.621L47.1269 118.329L45.8074 119.652L46.9725 121.177L40.452 126.228L31.9732 116.077L40.08 110.703Z" fill="white" stroke="#263238" stroke-width="0.6218" stroke-miterlimit="10" stroke-linecap="round" stroke-linejoin="round"/>
<path d="M45.6108 122.149L42.8103 118.966" stroke="#263238" stroke-width="0.6218" stroke-miterlimit="10" stroke-linecap="round" stroke-linejoin="round"/>
<path d="M43.7789 123.409L40.9714 120.219" stroke="#263238" stroke-width="0.6218" stroke-miterlimit="10" stroke-linecap="round" stroke-linejoin="round"/>
<path d="M42.0453 124.787L39.2448 121.597" stroke="#263238" stroke-width="0.6218" stroke-miterlimit="10" stroke-linecap="round" stroke-linejoin="round"/>
<path d="M45.8425 119.715L43.7789 117.336" stroke="#263238" stroke-width="0.6218" stroke-miterlimit="10" stroke-linecap="round" stroke-linejoin="round"/>
<path d="M29.6219 83.7952C23.7331 96.3257 41.7856 110.123 41.7856 110.123L30.9836 118.147C30.9836 118.147 16.4686 105.904 15.7246 97.62" fill="#FF9900"/>
<path d="M48.1236 50.4015C48.1236 50.4015 41.2451 52.1785 40.838 43.8388C40.4239 35.5061 53.851 32.4977 57.0094 35.9819C60.1679 39.4661 48.1236 50.4015 48.1236 50.4015Z" fill="#263238"/>
<path d="M48.7693 61.7846C51.1136 61.7846 53.0087 59.8886 53.0087 57.5588V43.8179H44.5299V57.5588C44.5299 59.8956 46.425 61.7846 48.7693 61.7846Z" fill="white" stroke="#263238" stroke-width="0.6218" stroke-miterlimit="10" stroke-linecap="round" stroke-linejoin="round"/>
<path d="M77.708 79.9472C77.708 64.5202 65.8602 57.6427 50.3907 57.2789C50.0748 57.2719 49.7519 57.2649 49.4291 57.2649C26.1546 57.2649 18.8129 74.1262 17.7109 77.0367C15.2543 83.5154 8.34779 103.833 30.6045 113.229C37.3005 116.056 42.0874 109.199 45.6599 107.366C51.8927 104.169 54.1387 103.371 54.1387 103.371L77.708 79.9472Z" fill="#FF9900"/>
<path d="M41.5469 44.5035C41.4416 45.7978 42.4102 46.9312 43.7087 47.0361C43.9123 47.0501 44.1088 47.0431 44.2983 47.0082C44.3896 47.8687 44.6633 48.6873 45.0774 49.4079C46.0671 51.157 47.8849 52.3954 50.0467 52.5703C53.507 52.8502 56.5392 50.2755 56.8129 46.8263C57.0937 43.377 54.5107 40.3546 51.0504 40.0817C48.7061 39.8928 46.5584 41.0122 45.3371 42.8313C44.9932 42.5585 44.565 42.3905 44.0948 42.3486C42.7893 42.2506 41.6522 43.2091 41.5469 44.5035Z" fill="white" stroke="#263238" stroke-width="0.6218" stroke-miterlimit="10" stroke-linecap="round" stroke-linejoin="round"/>
<path d="M45.0423 45.6929C45.0423 45.6929 45.0634 44.5036 43.8842 44.5735" stroke="#263238" stroke-width="0.6218" stroke-miterlimit="10" stroke-linecap="round" stroke-linejoin="round"/>
<path d="M178.807 72.2441H60.8698V185.096H178.807V72.2441Z" fill="#F5F1EA"/>
<path d="M84.5373 68.1514L84.6075 74.721L92.8546 74.679L93.0301 68.2143L84.5373 68.1514Z" fill="white" stroke="#263238" stroke-width="0.6218" stroke-miterlimit="10" stroke-linecap="round" stroke-linejoin="round"/>
<path d="M86.271 74.6089L86.3833 70.3691" stroke="#263238" stroke-width="0.6218" stroke-miterlimit="10" stroke-linecap="round" stroke-linejoin="round"/>
<path d="M88.489 74.3991L88.6013 70.1663" stroke="#263238" stroke-width="0.6218" stroke-miterlimit="10" stroke-linecap="round" stroke-linejoin="round"/>
<path d="M90.6999 74.3572L90.8122 70.1174" stroke="#263238" stroke-width="0.6218" stroke-miterlimit="10" stroke-linecap="round" stroke-linejoin="round"/>
<path d="M29.6219 83.7952C23.7331 96.3257 41.7856 110.123 41.7856 110.123" stroke="white" stroke-width="0.6218" stroke-miterlimit="10" stroke-linecap="round" stroke-linejoin="round"/>
<path d="M163.008 93.6812H76.8728V106.883H163.008V93.6812Z" fill="white"/>
<path d="M163.008 112.425H76.8728V125.627H163.008V112.425Z" fill="white"/>
<path d="M163.008 131.749H76.8728V144.951H163.008V131.749Z" fill="white"/>
<path d="M145.868 154.326H94.0128V167.528H145.868V154.326Z" fill="#FF9900"/>
<path d="M160.951 64.0166C170.1 64.0166 177.516 56.6242 177.516 47.5051C177.516 38.3861 170.1 30.9937 160.951 30.9937C151.803 30.9937 144.387 38.3861 144.387 47.5051C144.387 56.6242 151.803 64.0166 160.951 64.0166Z" fill="white" stroke="#263238" stroke-width="0.6218" stroke-miterlimit="10" stroke-linecap="round" stroke-linejoin="round" stroke-dasharray="6.22 6.22"/>
<path d="M9.57516 185.096H189.195" stroke="#263238" stroke-width="0.3" stroke-miterlimit="10" stroke-linecap="round" stroke-linejoin="round"/>
<path d="M185.896 96.2139C185.896 96.2139 198.053 74.3572 176.337 62.1765" stroke="#263238" stroke-width="0.6218" stroke-miterlimit="10" stroke-linecap="round" stroke-linejoin="round" stroke-dasharray="6.22 6.22"/>
<path d="M109.651 51.2271L108.97 46.0078L107.342 46.2247L104.127 42.0478L104.759 40.5366L99.8805 38.5146L99.2559 40.0259L94.0198 40.7045L93.0231 39.4032L88.8329 42.6005L89.8295 43.9019L87.8011 48.7574L86.1727 48.9743L86.8536 54.1936L88.4819 53.9837L91.6895 58.1605L91.0578 59.6717L95.9359 61.6937L96.5676 60.1825L101.804 59.5038L102.8 60.8052L106.991 57.6078L105.994 56.3065L108.022 51.444L109.651 51.2271ZM98.4557 54.2775C96.1395 54.5784 94.0198 52.9552 93.718 50.6534C93.4162 48.3446 95.0445 46.2317 97.3608 45.9308C99.677 45.63 101.797 47.2531 102.098 49.562C102.4 51.8638 100.772 53.9767 98.4557 54.2775Z" fill="#263238"/>
<path d="M102.709 1H29.4535V21.8772H102.709V1Z" fill="white" stroke="#263238" stroke-width="0.6218" stroke-miterlimit="10" stroke-linecap="round" stroke-linejoin="round" stroke-dasharray="6.22 6.22"/>
<path d="M40.445 14.6569C42.2282 14.6569 43.6737 13.216 43.6737 11.4386C43.6737 9.66112 42.2282 8.22021 40.445 8.22021C38.6619 8.22021 37.2163 9.66112 37.2163 11.4386C37.2163 13.216 38.6619 14.6569 40.445 14.6569Z" fill="#E0E7EB"/>
<path d="M50.6504 14.6569C52.4335 14.6569 53.8791 13.216 53.8791 11.4386C53.8791 9.66112 52.4335 8.22021 50.6504 8.22021C48.8672 8.22021 47.4217 9.66112 47.4217 11.4386C47.4217 13.216 48.8672 14.6569 50.6504 14.6569Z" fill="#E0E7EB"/>
<path d="M60.8558 14.6569C62.639 14.6569 64.0845 13.216 64.0845 11.4386C64.0845 9.66112 62.639 8.22021 60.8558 8.22021C59.0727 8.22021 57.6271 9.66112 57.6271 11.4386C57.6271 13.216 59.0727 14.6569 60.8558 14.6569Z" fill="#E0E7EB"/>
<path d="M71.0612 14.6569C72.8443 14.6569 74.2898 13.216 74.2898 11.4386C74.2898 9.66112 72.8443 8.22021 71.0612 8.22021C69.278 8.22021 67.8325 9.66112 67.8325 11.4386C67.8325 13.216 69.278 14.6569 71.0612 14.6569Z" fill="#E0E7EB"/>
<path d="M81.2736 14.6569C83.0567 14.6569 84.5023 13.216 84.5023 11.4386C84.5023 9.66112 83.0567 8.22021 81.2736 8.22021C79.4904 8.22021 78.0449 9.66112 78.0449 11.4386C78.0449 13.216 79.4904 14.6569 81.2736 14.6569Z" fill="#E0E7EB"/>
<path d="M94.7077 11.4386C94.7077 13.2156 93.2618 14.6569 91.479 14.6569C89.6962 14.6569 88.2503 13.2156 88.2503 11.4386C88.2503 9.66147 89.6962 8.22021 91.479 8.22021C93.2618 8.22021 94.7077 9.66147 94.7077 11.4386Z" fill="#E0E7EB"/>
<path d="M166.068 47.7709C164.468 49.3661 161.878 49.3661 160.278 47.7709C158.677 46.1757 158.677 43.5941 160.278 41.9989C161.878 40.4037 164.468 40.4037 166.068 41.9989C167.668 43.5941 167.668 46.1827 166.068 47.7709Z" fill="#263238"/>
<path d="M163.176 44.8884L156.052 51.9828L158.277 54.2006" stroke="#263238" stroke-width="3" stroke-miterlimit="10"/>
<path d="M159.695 51.6189L158.06 49.9888" stroke="#263238" stroke-width="3" stroke-miterlimit="10"/>
<path d="M164.714 46.4207C163.864 47.2673 162.489 47.2673 161.632 46.4207C160.783 45.5741 160.783 44.2028 161.632 43.3493C162.482 42.5027 163.857 42.5027 164.714 43.3493C165.563 44.2028 165.563 45.5741 164.714 46.4207Z" fill="white"/>
</svg>
