<svg width="97" height="57" viewBox="0 0 97 57" fill="none" xmlns="http://www.w3.org/2000/svg">
<path d="M9.02052 42.9209C9.02052 37.8097 10.0272 32.7486 11.9832 28.0265C13.9392 23.3044 16.806 19.0138 20.4202 15.3997C24.0343 11.7856 28.3249 8.91869 33.047 6.96273C37.7691 5.00678 42.8302 4.00006 47.9414 4.00006C53.0525 4.00006 58.1136 5.00678 62.8357 6.96274C67.5578 8.91869 71.8484 11.7856 75.4625 15.3997C79.0767 19.0138 81.9436 23.3044 83.8995 28.0265C85.8555 32.7486 86.8622 37.8097 86.8622 42.9209" stroke="url(#paint0_linear)" stroke-width="6.89908"/>
<path d="M4.648 54.1338H5.496L3.24 48.4618H2.336L0.08 54.1338H0.92L1.52 52.5498H4.032L4.648 54.1338ZM2.768 49.2778L3.752 51.8218H1.8L2.768 49.2778ZM9.27194 50.2858H8.46394L7.35994 53.2538L6.26394 50.2858H5.41594L6.97594 54.1338H7.73594L9.27194 50.2858ZM11.5224 53.5818C10.8824 53.5818 10.3224 53.1018 10.3224 52.2058C10.3224 51.3178 10.8824 50.8378 11.5224 50.8378C12.1624 50.8378 12.7224 51.3178 12.7224 52.2058C12.7224 53.1018 12.1624 53.5818 11.5224 53.5818ZM11.5224 50.1658C10.3704 50.1658 9.55438 51.0378 9.55438 52.2058C9.55438 53.3818 10.3704 54.2538 11.5224 54.2538C12.6744 54.2538 13.4904 53.3818 13.4904 52.2058C13.4904 51.0378 12.6744 50.1658 11.5224 50.1658ZM15.1965 54.1338V50.2858H14.4525V54.1338H15.1965ZM14.2845 48.8298C14.2845 49.1258 14.5245 49.3658 14.8205 49.3658C15.1245 49.3658 15.3645 49.1258 15.3645 48.8298C15.3645 48.5258 15.1245 48.2858 14.8205 48.2858C14.5245 48.2858 14.2845 48.5258 14.2845 48.8298ZM16.9239 52.1978C16.9239 51.4058 17.3719 50.8458 18.0599 50.8458C18.7479 50.8458 19.1639 51.3898 19.1639 52.1818C19.1639 52.9738 18.7399 53.5738 18.0519 53.5738C17.3319 53.5738 16.9239 52.9898 16.9239 52.1978ZM19.1719 53.6138C19.1719 53.8458 19.1959 54.0458 19.2119 54.1338H19.9399C19.9319 54.0698 19.8999 53.7898 19.8999 53.4218V48.3418H19.1559V50.8298C19.0279 50.5178 18.6599 50.1818 17.9799 50.1818C16.8919 50.1818 16.1559 51.1098 16.1559 52.1978C16.1559 53.3418 16.8519 54.2378 17.9799 54.2378C18.5799 54.2378 18.9879 53.9178 19.1719 53.5498V53.6138Z" fill="#777777"/>
<path d="M34.9932 47.601C36.4412 47.601 37.3052 46.681 37.5612 45.721L36.6812 45.433C36.4892 46.073 35.9452 46.681 34.9932 46.681C34.0252 46.681 33.1132 45.977 33.1132 44.649C33.1132 43.273 34.0492 42.593 34.9852 42.593C35.9372 42.593 36.4652 43.145 36.6332 43.833L37.5372 43.529C37.2812 42.537 36.4252 41.689 34.9852 41.689C33.5132 41.689 32.1292 42.801 32.1292 44.649C32.1292 46.497 33.4652 47.601 34.9932 47.601ZM38.0829 46.425C38.0829 47.041 38.5869 47.601 39.4029 47.601C40.0349 47.601 40.4189 47.281 40.6029 46.985C40.6029 47.297 40.6349 47.457 40.6429 47.481H41.5069C41.4989 47.441 41.4589 47.209 41.4589 46.857V44.921C41.4589 44.145 41.0029 43.465 39.8029 43.465C38.8429 43.465 38.2349 44.065 38.1629 44.737L39.0109 44.929C39.0509 44.537 39.3229 44.225 39.8109 44.225C40.3229 44.225 40.5469 44.489 40.5469 44.817C40.5469 44.953 40.4829 45.065 40.2589 45.097L39.2589 45.249C38.5949 45.345 38.0829 45.729 38.0829 46.425ZM39.5789 46.873C39.2109 46.873 39.0109 46.633 39.0109 46.369C39.0109 46.049 39.2429 45.889 39.5309 45.841L40.5469 45.689V45.865C40.5469 46.625 40.0989 46.873 39.5789 46.873ZM45.0542 47.049C45.0542 47.209 45.0702 47.393 45.0862 47.481H45.9742C45.9582 47.337 45.9342 47.089 45.9342 46.769V43.585H45.0062V45.889C45.0062 46.401 44.7262 46.761 44.1902 46.761C43.6302 46.761 43.4062 46.353 43.4062 45.873V43.585H42.4782V46.041C42.4782 46.905 43.0222 47.593 43.9502 47.593C44.4062 47.593 44.8622 47.401 45.0542 47.049ZM48.3114 42.393H47.4714V42.977C47.4714 43.321 47.2874 43.585 46.8714 43.585H46.6714V44.409H47.3914V46.369C47.3914 47.097 47.8394 47.529 48.5594 47.529C48.8954 47.529 49.0714 47.465 49.1274 47.441V46.673C49.0874 46.681 48.9354 46.705 48.8074 46.705C48.4634 46.705 48.3114 46.561 48.3114 46.217V44.409H49.1194V43.585H48.3114V42.393ZM50.9929 47.481V43.585H50.0729V47.481H50.9929ZM49.9289 42.217C49.9289 42.553 50.2009 42.817 50.5289 42.817C50.8649 42.817 51.1369 42.553 51.1369 42.217C51.1369 41.881 50.8649 41.609 50.5289 41.609C50.2009 41.609 49.9289 41.881 49.9289 42.217ZM53.9021 46.769C53.3341 46.769 52.8141 46.337 52.8141 45.529C52.8141 44.721 53.3341 44.305 53.9021 44.305C54.4781 44.305 54.9901 44.721 54.9901 45.529C54.9901 46.345 54.4781 46.769 53.9021 46.769ZM53.9021 43.465C52.7421 43.465 51.8861 44.337 51.8861 45.529C51.8861 46.729 52.7421 47.601 53.9021 47.601C55.0701 47.601 55.9261 46.729 55.9261 45.529C55.9261 44.337 55.0701 43.465 53.9021 43.465ZM59.3355 47.049C59.3355 47.209 59.3515 47.393 59.3675 47.481H60.2555C60.2395 47.337 60.2155 47.089 60.2155 46.769V43.585H59.2875V45.889C59.2875 46.401 59.0075 46.761 58.4715 46.761C57.9115 46.761 57.6875 46.353 57.6875 45.873V43.585H56.7595V46.041C56.7595 46.905 57.3035 47.593 58.2315 47.593C58.6875 47.593 59.1435 47.401 59.3355 47.049ZM61.0727 46.425C61.1207 46.865 61.5527 47.601 62.6807 47.601C63.6727 47.601 64.1527 46.945 64.1527 46.353C64.1527 45.777 63.7687 45.329 63.0327 45.169L62.4407 45.049C62.2007 45.001 62.0487 44.849 62.0487 44.641C62.0487 44.401 62.2807 44.193 62.6087 44.193C63.1287 44.193 63.2967 44.553 63.3287 44.777L64.1127 44.553C64.0487 44.169 63.6967 43.465 62.6087 43.465C61.8007 43.465 61.1767 44.041 61.1767 44.721C61.1767 45.257 61.5367 45.705 62.2247 45.857L62.8007 45.985C63.1127 46.049 63.2567 46.209 63.2567 46.417C63.2567 46.657 63.0567 46.865 62.6727 46.865C62.1767 46.865 61.9127 46.553 61.8807 46.201L61.0727 46.425Z" fill="#3E4042"/>
<path d="M84.5378 49.7498C84.4098 49.1338 83.8978 48.3418 82.6178 48.3418C81.5698 48.3418 80.7458 49.1418 80.7458 50.0298C80.7458 50.8778 81.3218 51.4058 82.1298 51.5818L82.9378 51.7578C83.5058 51.8778 83.7858 52.2298 83.7858 52.6378C83.7858 53.1338 83.4018 53.5418 82.6178 53.5418C81.7618 53.5418 81.3138 52.9578 81.2578 52.3258L80.5058 52.5658C80.6098 53.3738 81.2578 54.2538 82.6258 54.2538C83.8338 54.2538 84.5858 53.4538 84.5858 52.5738C84.5858 51.7818 84.0578 51.1898 83.1138 50.9818L82.2658 50.7978C81.7858 50.6938 81.5378 50.3818 81.5378 49.9738C81.5378 49.4458 81.9938 49.0298 82.6338 49.0298C83.4258 49.0298 83.7698 49.5898 83.8338 49.9978L84.5378 49.7498ZM85.3049 53.1018C85.3049 53.7098 85.8089 54.2538 86.5929 54.2538C87.2809 54.2538 87.6649 53.8858 87.8329 53.6138C87.8329 53.8938 87.8569 54.0378 87.8729 54.1338H88.6089C88.5929 54.0378 88.5609 53.8378 88.5609 53.5018V51.5738C88.5609 50.8218 88.1129 50.1658 86.9609 50.1658C86.1289 50.1658 85.4649 50.6778 85.3849 51.4138L86.1049 51.5818C86.1529 51.1338 86.4489 50.8058 86.9769 50.8058C87.5609 50.8058 87.8089 51.1178 87.8089 51.4938C87.8089 51.6298 87.7449 51.7498 87.5129 51.7818L86.4729 51.9338C85.8089 52.0298 85.3049 52.4138 85.3049 53.1018ZM86.6969 53.6218C86.3129 53.6218 86.0729 53.3498 86.0729 53.0618C86.0729 52.7178 86.3129 52.5338 86.6329 52.4858L87.8089 52.3098V52.4858C87.8089 53.3258 87.3129 53.6218 86.6969 53.6218ZM91.6684 50.9658V50.2858H90.7404V49.6778C90.7404 49.1498 91.0844 49.0218 91.3484 49.0218C91.5404 49.0218 91.6364 49.0538 91.6764 49.0698V48.3978C91.6444 48.3738 91.4844 48.3178 91.2284 48.3178C90.5324 48.3178 89.9644 48.7818 89.9644 49.6378V50.2858H89.2524V50.9658H89.9644V54.1338H90.7404V50.9658H91.6684ZM92.8063 51.8138C92.8383 51.3178 93.2223 50.8298 93.8543 50.8298C94.5343 50.8298 94.8943 51.2618 94.9103 51.8138H92.8063ZM95.0223 52.8138C94.8783 53.2458 94.5663 53.5898 93.9423 53.5898C93.2943 53.5898 92.7983 53.1098 92.7823 52.4218H95.6783C95.6863 52.3738 95.6943 52.2778 95.6943 52.1818C95.6943 50.9818 95.0303 50.1658 93.8463 50.1658C92.8783 50.1658 92.0063 50.9898 92.0063 52.1978C92.0063 53.5018 92.9103 54.2538 93.9423 54.2538C94.8383 54.2538 95.4543 53.7178 95.6703 53.0378L95.0223 52.8138Z" fill="#777777"/>
<path d="M13.5776 18.5954L48.0874 35.1479C49.1727 35.6685 49.5984 36.9936 49.0192 38.0489C48.44 39.1041 47.0935 39.4566 46.0715 38.8205L13.5776 18.5954Z" fill="#3E4042"/>
<defs>
<linearGradient id="paint0_linear" x1="92.0289" y1="42.8074" x2="2.2176" y2="42.8074" gradientUnits="userSpaceOnUse">
<stop stop-color="#4FD293"/>
<stop offset="0.401042" stop-color="#FF9900"/>
<stop offset="1" stop-color="#DA0000"/>
</linearGradient>
</defs>
</svg>
