<svg width="60" height="60" viewBox="0 0 60 60" fill="none" xmlns="http://www.w3.org/2000/svg">
<circle cx="29.9737" cy="29.9737" r="27.9737" fill="#F5F1EA"/>
<circle cx="29.984" cy="29.984" r="16.984" fill="white"/>
<path d="M25.6376 24.696C25.7496 24.656 25.8856 24.616 26.1096 24.616C26.6056 24.616 26.9576 24.896 26.9576 25.384C26.9576 25.816 26.6296 26.168 26.0776 26.168C25.5336 26.168 25.1576 25.784 25.1336 25.256L24.0696 25.464C24.1336 26.336 24.8696 27.12 26.0776 27.12C27.3336 27.12 28.0696 26.296 28.0696 25.4C28.0696 24.448 27.3496 23.848 26.5656 23.816L27.9096 22.696V21.808H24.2376V22.76H26.5096L25.1496 23.928L25.6376 24.696ZM31.9072 27H33.1182L31.1372 24.2L33.1042 22.037H31.8372L29.8492 24.284V22.037H28.8832V27H29.8492V25.621L30.4652 24.942L31.9072 27ZM35.8839 25.096V24.152H33.5639V25.096H35.8839ZM24.0946 35.696C24.2066 35.656 24.3426 35.616 24.5666 35.616C25.0626 35.616 25.4146 35.896 25.4146 36.384C25.4146 36.816 25.0866 37.168 24.5346 37.168C23.9906 37.168 23.6146 36.784 23.5906 36.256L22.5266 36.464C22.5906 37.336 23.3266 38.12 24.5346 38.12C25.7906 38.12 26.5266 37.296 26.5266 36.4C26.5266 35.448 25.8066 34.848 25.0226 34.816L26.3666 33.696V32.808H22.6946V33.76H24.9666L23.6066 34.928L24.0946 35.696ZM27.2071 37.328C27.2071 37.728 27.5351 38.056 27.9351 38.056C28.3431 38.056 28.6711 37.728 28.6711 37.328C28.6711 36.928 28.3431 36.6 27.9351 36.6C27.5351 36.6 27.2071 36.928 27.2071 37.328ZM32.8588 32.808H28.9148V33.76H31.5868C31.5868 33.76 29.8508 35.208 29.6348 38H30.7788C31.0108 35.384 32.4668 34.064 32.8588 33.728V32.808ZM36.4892 38H37.7002L35.7192 35.2L37.6862 33.037H36.4192L34.4312 35.284V33.037H33.4652V38H34.4312V36.621L35.0472 35.942L36.4892 38Z" fill="#3E4042"/>
<circle cx="29.9737" cy="29.9737" r="27.9737" stroke="#F4E7D4" stroke-width="0.999059"/>
<path d="M29.9737 2C35.943 2 41.7558 3.9095 46.5623 7.44936C51.3687 10.9892 54.9168 15.9738 56.6878 21.6743C58.4588 27.3749 58.3599 33.4925 56.4054 39.1328C54.4509 44.773 50.7435 49.6402 45.825 53.0228C40.9065 56.4053 35.035 58.1258 29.0688 57.9327C23.1026 57.7396 17.3546 55.6431 12.6652 51.9496C7.97571 48.2561 4.59071 43.1594 3.00502 37.4046C1.41934 31.6497 1.71613 25.5385 3.85202 19.9644" stroke="#FF9900" stroke-width="2.99718" stroke-linecap="round"/>
</svg>
