<svg width="293" height="253" viewBox="0 0 293 253" fill="none" xmlns="http://www.w3.org/2000/svg">
<circle cx="59" cy="59" r="56" fill="#F3F8F5"/>
<circle cx="59.4001" cy="59.3999" r="34" fill="white"/>
<path d="M47.0654 57.3681C45.6254 57.3441 44.7854 56.4321 44.7854 55.3281C44.7854 54.2961 45.6254 53.3601 47.0654 53.3601C48.5294 53.3601 49.3694 54.2961 49.3694 55.3281C49.3694 56.4321 48.5294 57.3441 47.0654 57.3681ZM47.0654 64.1841C45.3614 64.1841 44.4494 63.1281 44.4494 62.0241C44.4494 60.8961 45.3134 59.8161 47.0654 59.8161C48.8174 59.8161 49.7054 60.8961 49.7054 62.0241C49.7054 63.1281 48.7934 64.1841 47.0654 64.1841ZM47.0654 66.9201C50.6174 66.9201 52.9454 65.0481 52.9454 62.3601C52.9454 60.6801 51.8414 59.1681 50.2094 58.5681C51.7694 57.9921 52.6334 56.4561 52.6334 55.0881C52.6334 52.4721 50.3054 50.6241 47.0654 50.6241C43.8254 50.6241 41.4974 52.4721 41.4974 55.0881C41.4974 56.4801 42.3854 57.9921 43.9454 58.5681C42.2894 59.1921 41.1854 60.6801 41.1854 62.3601C41.1854 65.0481 43.5134 66.9201 47.0654 66.9201ZM58.042 57.0081C57.97 56.7441 57.922 56.4321 57.922 56.1441C57.922 54.6801 58.738 53.5521 60.394 53.5521C61.954 53.5521 62.746 54.5601 62.746 55.6881C62.746 56.7681 62.218 57.5841 60.898 58.3761L58.33 59.9121C55.546 61.5921 54.682 63.8241 54.658 66.5601H66.178V63.7041H58.714C58.954 63.1041 59.458 62.6721 60.058 62.2881L63.058 60.4641C64.978 59.2881 66.082 57.6561 66.082 55.6401C66.082 52.9281 63.946 50.6241 60.466 50.6241C56.842 50.6241 54.778 53.0961 54.778 55.8321C54.778 56.2161 54.85 56.6961 54.898 56.9121L58.042 57.0081Z" fill="#3E4042"/>
<path d="M68.9373 59.6161C68.9373 59.0421 69.3433 58.6501 69.8613 58.6501C70.3933 58.6501 70.7853 59.0421 70.7853 59.6161C70.7853 60.1901 70.3933 60.5961 69.8613 60.5961C69.3433 60.5961 68.9373 60.2041 68.9373 59.6161ZM67.5373 59.6161C67.5373 60.8901 68.5873 61.8981 69.8613 61.8981C71.1213 61.8981 72.1993 60.9181 72.1993 59.6161C72.1993 58.3281 71.1213 57.3201 69.8613 57.3201C68.6013 57.3201 67.5373 58.3281 67.5373 59.6161ZM75.0553 64.4321C75.0553 63.8581 75.4613 63.4661 75.9793 63.4661C76.5113 63.4661 76.9033 63.8581 76.9033 64.4321C76.9033 65.0061 76.5113 65.4121 75.9793 65.4121C75.4613 65.4121 75.0553 65.0201 75.0553 64.4321ZM73.6553 64.4321C73.6553 65.7061 74.7053 66.7141 75.9793 66.7141C77.2393 66.7141 78.3173 65.7341 78.3173 64.4321C78.3173 63.1441 77.2393 62.1361 75.9793 62.1361C74.7193 62.1361 73.6553 63.1441 73.6553 64.4321ZM70.5333 66.5601L76.9453 57.4741H75.3213L68.9093 66.5601H70.5333Z" fill="#777777"/>
<circle cx="59" cy="59" r="56" stroke="#D2EADA" stroke-width="2"/>
<path d="M59 3C71.1268 3 82.9259 6.93649 92.6235 14.2177C102.321 21.4988 109.393 31.7312 112.776 43.3765C116.16 55.0218 115.671 67.4507 111.385 78.7946C107.098 90.1385 99.2453 99.7845 89.0063 106.282C78.7673 112.78 66.6957 115.779 54.6063 114.827C42.5169 113.876 31.063 109.026 21.9665 101.006C12.8701 92.9866 6.62268 82.2309 4.16352 70.3561C1.70436 58.4812 3.16635 46.129 8.32969 35.1563" stroke="#61CD84" stroke-width="5" stroke-linecap="round"/>
<path d="M157.873 31H159.369L157.609 27.788C158.698 27.524 159.369 26.677 159.369 25.566C159.369 24.246 158.434 23.201 156.927 23.201H153.935V31H155.266V27.92H156.234L157.873 31ZM155.266 26.754V24.367H156.685C157.499 24.367 158.027 24.84 158.027 25.566C158.027 26.281 157.499 26.754 156.685 26.754H155.266ZM161.604 27.095C161.604 25.214 162.902 24.279 164.211 24.279C165.531 24.279 166.829 25.214 166.829 27.095C166.829 28.976 165.531 29.911 164.211 29.911C162.902 29.911 161.604 28.976 161.604 27.095ZM160.251 27.095C160.251 29.658 162.165 31.165 164.211 31.165C166.257 31.165 168.182 29.658 168.182 27.095C168.182 24.543 166.257 23.036 164.211 23.036C162.165 23.036 160.251 24.543 160.251 27.095ZM170.918 31V23.201H169.576V31H170.918Z" fill="#777777"/>
<rect x="153" y="45" width="140" height="10" rx="5" fill="#F2F4F6"/>
<rect x="155" y="47" width="136" height="6" rx="3" fill="#61CD84"/>
<path d="M252.744 31V29.768H249.246V27.7H252.414V26.501H249.246V24.433H252.744V23.201H247.926V31H252.744ZM253.515 31H254.978C255.077 30.835 256.078 29.372 256.188 29.207L257.431 31H258.927L256.98 28.272L258.861 25.643H257.409L256.243 27.359C256.144 27.205 255.165 25.808 255.066 25.643H253.548L255.462 28.294L253.515 31ZM262.029 26.655C262.843 26.655 263.206 27.183 263.327 27.656L264.471 27.238C264.251 26.38 263.459 25.478 262.018 25.478C260.478 25.478 259.279 26.666 259.279 28.316C259.279 29.944 260.478 31.165 262.051 31.165C263.459 31.165 264.262 30.252 264.515 29.416L263.393 29.009C263.272 29.416 262.887 29.999 262.051 29.999C261.248 29.999 260.555 29.394 260.555 28.316C260.555 27.238 261.248 26.655 262.029 26.655ZM266.486 27.733C266.53 27.161 266.992 26.545 267.795 26.545C268.675 26.545 269.093 27.106 269.115 27.733H266.486ZM269.258 29.13C269.082 29.658 268.686 30.065 267.916 30.065C267.124 30.065 266.486 29.482 266.453 28.668H270.369C270.38 28.646 270.402 28.47 270.402 28.261C270.402 26.567 269.434 25.478 267.784 25.478C266.431 25.478 265.177 26.6 265.177 28.294C265.177 30.109 266.464 31.165 267.916 31.165C269.203 31.165 270.05 30.406 270.336 29.471L269.258 29.13ZM272.897 31V23.036H271.621V31H272.897ZM275.819 31V23.036H274.543V31H275.819ZM278.356 27.733C278.4 27.161 278.862 26.545 279.665 26.545C280.545 26.545 280.963 27.106 280.985 27.733H278.356ZM281.128 29.13C280.952 29.658 280.556 30.065 279.786 30.065C278.994 30.065 278.356 29.482 278.323 28.668H282.239C282.25 28.646 282.272 28.47 282.272 28.261C282.272 26.567 281.304 25.478 279.654 25.478C278.301 25.478 277.047 26.6 277.047 28.294C277.047 30.109 278.334 31.165 279.786 31.165C281.073 31.165 281.92 30.406 282.206 29.471L281.128 29.13ZM284.767 27.909C284.767 27.205 285.152 26.644 285.878 26.644C286.681 26.644 286.978 27.172 286.978 27.832V31H288.254V27.612C288.254 26.435 287.627 25.489 286.318 25.489C285.724 25.489 285.086 25.742 284.734 26.358V25.643H283.491V31H284.767V27.909ZM291.424 24.004H290.269V24.807C290.269 25.28 290.016 25.643 289.444 25.643H289.169V26.776H290.159V29.471C290.159 30.472 290.775 31.066 291.765 31.066C292.227 31.066 292.469 30.978 292.546 30.945V29.889C292.491 29.9 292.282 29.933 292.106 29.933C291.633 29.933 291.424 29.735 291.424 29.262V26.776H292.535V25.643H291.424V24.004Z" fill="#3E4042"/>
<path d="M157.4 79.165C159.391 79.165 160.579 77.9 160.931 76.58L159.721 76.184C159.457 77.064 158.709 77.9 157.4 77.9C156.069 77.9 154.815 76.932 154.815 75.106C154.815 73.214 156.102 72.279 157.389 72.279C158.698 72.279 159.424 73.038 159.655 73.984L160.898 73.566C160.546 72.202 159.369 71.036 157.389 71.036C155.365 71.036 153.462 72.565 153.462 75.106C153.462 77.647 155.299 79.165 157.4 79.165ZM164.322 78.021C163.541 78.021 162.826 77.427 162.826 76.316C162.826 75.205 163.541 74.633 164.322 74.633C165.114 74.633 165.818 75.205 165.818 76.316C165.818 77.438 165.114 78.021 164.322 78.021ZM164.322 73.478C162.727 73.478 161.55 74.677 161.55 76.316C161.55 77.966 162.727 79.165 164.322 79.165C165.928 79.165 167.105 77.966 167.105 76.316C167.105 74.677 165.928 73.478 164.322 73.478ZM169.603 79V75.821C169.603 75.139 170.032 74.633 170.714 74.633C171.44 74.633 171.748 75.117 171.748 75.733V79H173.002V75.821C173.002 75.161 173.442 74.633 174.113 74.633C174.828 74.633 175.147 75.106 175.147 75.733V79H176.379V75.524C176.379 74.105 175.455 73.489 174.487 73.489C173.794 73.489 173.167 73.731 172.749 74.435C172.463 73.808 171.847 73.489 171.143 73.489C170.538 73.489 169.867 73.775 169.559 74.325V73.643H168.338V79H169.603ZM179.206 81.09V78.395C179.481 78.802 180.064 79.132 180.834 79.132C182.374 79.132 183.353 77.922 183.353 76.316C183.353 74.732 182.462 73.522 180.878 73.522C180.053 73.522 179.437 73.907 179.173 74.369V73.643H177.941V81.09H179.206ZM182.077 76.316C182.077 77.339 181.483 77.999 180.636 77.999C179.8 77.999 179.195 77.339 179.195 76.316C179.195 75.315 179.8 74.655 180.636 74.655C181.494 74.655 182.077 75.315 182.077 76.316ZM185.471 75.733C185.515 75.161 185.977 74.545 186.78 74.545C187.66 74.545 188.078 75.106 188.1 75.733H185.471ZM188.243 77.13C188.067 77.658 187.671 78.065 186.901 78.065C186.109 78.065 185.471 77.482 185.438 76.668H189.354C189.365 76.646 189.387 76.47 189.387 76.261C189.387 74.567 188.419 73.478 186.769 73.478C185.416 73.478 184.162 74.6 184.162 76.294C184.162 78.109 185.449 79.165 186.901 79.165C188.188 79.165 189.035 78.406 189.321 77.471L188.243 77.13ZM192.223 72.004H191.068V72.807C191.068 73.28 190.815 73.643 190.243 73.643H189.968V74.776H190.958V77.471C190.958 78.472 191.574 79.066 192.564 79.066C193.026 79.066 193.268 78.978 193.345 78.945V77.889C193.29 77.9 193.081 77.933 192.905 77.933C192.432 77.933 192.223 77.735 192.223 77.262V74.776H193.334V73.643H192.223V72.004ZM195.91 79V73.643H194.645V79H195.91ZM194.447 71.762C194.447 72.224 194.821 72.587 195.272 72.587C195.734 72.587 196.108 72.224 196.108 71.762C196.108 71.3 195.734 70.926 195.272 70.926C194.821 70.926 194.447 71.3 194.447 71.762ZM199.173 72.004H198.018V72.807C198.018 73.28 197.765 73.643 197.193 73.643H196.918V74.776H197.908V77.471C197.908 78.472 198.524 79.066 199.514 79.066C199.976 79.066 200.218 78.978 200.295 78.945V77.889C200.24 77.9 200.031 77.933 199.855 77.933C199.382 77.933 199.173 77.735 199.173 77.262V74.776H200.284V73.643H199.173V72.004ZM202.861 79V73.643H201.596V79H202.861ZM201.398 71.762C201.398 72.224 201.772 72.587 202.223 72.587C202.685 72.587 203.059 72.224 203.059 71.762C203.059 71.3 202.685 70.926 202.223 70.926C201.772 70.926 201.398 71.3 201.398 71.762ZM206.861 78.021C206.08 78.021 205.365 77.427 205.365 76.316C205.365 75.205 206.08 74.633 206.861 74.633C207.653 74.633 208.357 75.205 208.357 76.316C208.357 77.438 207.653 78.021 206.861 78.021ZM206.861 73.478C205.266 73.478 204.089 74.677 204.089 76.316C204.089 77.966 205.266 79.165 206.861 79.165C208.467 79.165 209.644 77.966 209.644 76.316C209.644 74.677 208.467 73.478 206.861 73.478ZM212.153 75.909C212.153 75.205 212.538 74.644 213.264 74.644C214.067 74.644 214.364 75.172 214.364 75.832V79H215.64V75.612C215.64 74.435 215.013 73.489 213.704 73.489C213.11 73.489 212.472 73.742 212.12 74.358V73.643H210.877V79H212.153V75.909Z" fill="#777777"/>
<rect x="153" y="93" width="140" height="10" rx="5" fill="#F2F4F6"/>
<rect x="155" y="95" width="88" height="6" rx="3" fill="#FF9900"/>
<path d="M257.655 79H259.096L256.06 71.201H254.531L251.495 79H252.892L253.618 77.042H256.918L257.655 79ZM255.268 72.631L256.456 75.821H254.08L255.268 72.631ZM264.462 73.643H263.12L261.734 77.471L260.315 73.643H258.907L261.085 79H262.361L264.462 73.643ZM266.131 75.733C266.175 75.161 266.637 74.545 267.44 74.545C268.32 74.545 268.738 75.106 268.76 75.733H266.131ZM268.903 77.13C268.727 77.658 268.331 78.065 267.561 78.065C266.769 78.065 266.131 77.482 266.098 76.668H270.014C270.025 76.646 270.047 76.47 270.047 76.261C270.047 74.567 269.079 73.478 267.429 73.478C266.076 73.478 264.822 74.6 264.822 76.294C264.822 78.109 266.109 79.165 267.561 79.165C268.848 79.165 269.695 78.406 269.981 77.471L268.903 77.13ZM274.401 73.61C274.346 73.599 274.214 73.577 274.06 73.577C273.356 73.577 272.762 73.918 272.509 74.501V73.643H271.266V79H272.542V76.448C272.542 75.447 272.993 74.875 273.983 74.875C274.115 74.875 274.258 74.886 274.401 74.908V73.61ZM275.147 77.548C275.147 78.395 275.84 79.165 276.962 79.165C277.831 79.165 278.359 78.725 278.612 78.318C278.612 78.747 278.656 78.967 278.667 79H279.855C279.844 78.945 279.789 78.626 279.789 78.142V75.48C279.789 74.413 279.162 73.478 277.512 73.478C276.192 73.478 275.356 74.303 275.257 75.227L276.423 75.491C276.478 74.952 276.852 74.523 277.523 74.523C278.227 74.523 278.535 74.886 278.535 75.337C278.535 75.524 278.447 75.678 278.139 75.722L276.764 75.931C275.851 76.063 275.147 76.591 275.147 77.548ZM277.204 78.164C276.698 78.164 276.423 77.834 276.423 77.471C276.423 77.031 276.742 76.811 277.138 76.745L278.535 76.536V76.778C278.535 77.823 277.919 78.164 277.204 78.164ZM280.936 79.297C281.079 80.375 282.069 81.255 283.488 81.255C285.501 81.255 286.238 79.924 286.238 78.494V73.643H285.006V74.325C284.775 73.885 284.258 73.544 283.422 73.544C281.948 73.544 280.947 74.721 280.947 76.151C280.947 77.658 281.992 78.758 283.422 78.758C284.203 78.758 284.742 78.395 284.973 77.977V78.538C284.973 79.627 284.467 80.144 283.455 80.144C282.718 80.144 282.201 79.649 282.113 78.989L280.936 79.297ZM283.631 77.669C282.795 77.669 282.234 77.086 282.234 76.151C282.234 75.238 282.817 74.644 283.631 74.644C284.423 74.644 285.006 75.238 285.006 76.151C285.006 77.075 284.445 77.669 283.631 77.669ZM288.69 75.733C288.734 75.161 289.196 74.545 289.999 74.545C290.879 74.545 291.297 75.106 291.319 75.733H288.69ZM291.462 77.13C291.286 77.658 290.89 78.065 290.12 78.065C289.328 78.065 288.69 77.482 288.657 76.668H292.573C292.584 76.646 292.606 76.47 292.606 76.261C292.606 74.567 291.638 73.478 289.988 73.478C288.635 73.478 287.381 74.6 287.381 76.294C287.381 78.109 288.668 79.165 290.12 79.165C291.407 79.165 292.254 78.406 292.54 77.471L291.462 77.13Z" fill="#3E4042"/>
<path d="M9.061 127.027C8.885 126.158 8.17 125.036 6.333 125.036C4.881 125.036 3.682 126.114 3.682 127.423C3.682 128.589 4.474 129.37 5.662 129.612L6.762 129.843C7.433 129.986 7.807 130.393 7.807 130.899C7.807 131.504 7.323 131.977 6.388 131.977C5.266 131.977 4.683 131.229 4.606 130.415L3.374 130.767C3.495 131.889 4.408 133.165 6.388 133.165C8.17 133.165 9.149 132.01 9.149 130.8C9.149 129.7 8.412 128.831 7.037 128.556L5.915 128.325C5.31 128.193 5.002 127.819 5.002 127.324C5.002 126.73 5.552 126.202 6.344 126.202C7.389 126.202 7.796 126.917 7.873 127.401L9.061 127.027ZM10.0477 131.548C10.0477 132.395 10.7407 133.165 11.8627 133.165C12.7317 133.165 13.2597 132.725 13.5127 132.318C13.5127 132.747 13.5567 132.967 13.5677 133H14.7557C14.7447 132.945 14.6897 132.626 14.6897 132.142V129.48C14.6897 128.413 14.0627 127.478 12.4127 127.478C11.0927 127.478 10.2567 128.303 10.1577 129.227L11.3237 129.491C11.3787 128.952 11.7527 128.523 12.4237 128.523C13.1277 128.523 13.4357 128.886 13.4357 129.337C13.4357 129.524 13.3477 129.678 13.0397 129.722L11.6647 129.931C10.7517 130.063 10.0477 130.591 10.0477 131.548ZM12.1047 132.164C11.5987 132.164 11.3237 131.834 11.3237 131.471C11.3237 131.031 11.6427 130.811 12.0387 130.745L13.4357 130.536V130.778C13.4357 131.823 12.8197 132.164 12.1047 132.164ZM17.5082 133V125.036H16.2322V133H17.5082ZM20.0451 129.733C20.0891 129.161 20.5511 128.545 21.3541 128.545C22.2341 128.545 22.6521 129.106 22.6741 129.733H20.0451ZM22.8171 131.13C22.6411 131.658 22.2451 132.065 21.4751 132.065C20.6831 132.065 20.0451 131.482 20.0121 130.668H23.9281C23.9391 130.646 23.9611 130.47 23.9611 130.261C23.9611 128.567 22.9931 127.478 21.3431 127.478C19.9901 127.478 18.7361 128.6 18.7361 130.294C18.7361 132.109 20.0231 133.165 21.4751 133.165C22.7621 133.165 23.6091 132.406 23.8951 131.471L22.8171 131.13ZM24.7075 131.548C24.7735 132.153 25.3675 133.165 26.9185 133.165C28.2825 133.165 28.9425 132.263 28.9425 131.449C28.9425 130.657 28.4145 130.041 27.4025 129.821L26.5885 129.656C26.2585 129.59 26.0495 129.381 26.0495 129.095C26.0495 128.765 26.3685 128.479 26.8195 128.479C27.5345 128.479 27.7655 128.974 27.8095 129.282L28.8875 128.974C28.7995 128.446 28.3155 127.478 26.8195 127.478C25.7085 127.478 24.8505 128.27 24.8505 129.205C24.8505 129.942 25.3455 130.558 26.2915 130.767L27.0835 130.943C27.5125 131.031 27.7105 131.251 27.7105 131.537C27.7105 131.867 27.4355 132.153 26.9075 132.153C26.2255 132.153 25.8625 131.724 25.8185 131.24L24.7075 131.548Z" fill="#777777"/>
<rect x="3" y="147" width="140" height="10" rx="5" fill="#F2F4F6"/>
<rect x="5" y="149" width="136" height="6" rx="3" fill="#61CD84"/>
<path d="M102.744 133V131.768H99.2462V129.7H102.414V128.501H99.2462V126.433H102.744V125.201H97.9262V133H102.744ZM103.515 133H104.978C105.077 132.835 106.078 131.372 106.188 131.207L107.431 133H108.927L106.98 130.272L108.861 127.643H107.409L106.243 129.359C106.144 129.205 105.165 127.808 105.066 127.643H103.548L105.462 130.294L103.515 133ZM112.029 128.655C112.843 128.655 113.206 129.183 113.327 129.656L114.471 129.238C114.251 128.38 113.459 127.478 112.018 127.478C110.478 127.478 109.279 128.666 109.279 130.316C109.279 131.944 110.478 133.165 112.051 133.165C113.459 133.165 114.262 132.252 114.515 131.416L113.393 131.009C113.272 131.416 112.887 131.999 112.051 131.999C111.248 131.999 110.555 131.394 110.555 130.316C110.555 129.238 111.248 128.655 112.029 128.655ZM116.486 129.733C116.53 129.161 116.992 128.545 117.795 128.545C118.675 128.545 119.093 129.106 119.115 129.733H116.486ZM119.258 131.13C119.082 131.658 118.686 132.065 117.916 132.065C117.124 132.065 116.486 131.482 116.453 130.668H120.369C120.38 130.646 120.402 130.47 120.402 130.261C120.402 128.567 119.434 127.478 117.784 127.478C116.431 127.478 115.177 128.6 115.177 130.294C115.177 132.109 116.464 133.165 117.916 133.165C119.203 133.165 120.05 132.406 120.336 131.471L119.258 131.13ZM122.897 133V125.036H121.621V133H122.897ZM125.819 133V125.036H124.543V133H125.819ZM128.356 129.733C128.4 129.161 128.862 128.545 129.665 128.545C130.545 128.545 130.963 129.106 130.985 129.733H128.356ZM131.128 131.13C130.952 131.658 130.556 132.065 129.786 132.065C128.994 132.065 128.356 131.482 128.323 130.668H132.239C132.25 130.646 132.272 130.47 132.272 130.261C132.272 128.567 131.304 127.478 129.654 127.478C128.301 127.478 127.047 128.6 127.047 130.294C127.047 132.109 128.334 133.165 129.786 133.165C131.073 133.165 131.92 132.406 132.206 131.471L131.128 131.13ZM134.767 129.909C134.767 129.205 135.152 128.644 135.878 128.644C136.681 128.644 136.978 129.172 136.978 129.832V133H138.254V129.612C138.254 128.435 137.627 127.489 136.318 127.489C135.724 127.489 135.086 127.742 134.734 128.358V127.643H133.491V133H134.767V129.909ZM141.424 126.004H140.269V126.807C140.269 127.28 140.016 127.643 139.444 127.643H139.169V128.776H140.159V131.471C140.159 132.472 140.775 133.066 141.765 133.066C142.227 133.066 142.469 132.978 142.546 132.945V131.889C142.491 131.9 142.282 131.933 142.106 131.933C141.633 131.933 141.424 131.735 141.424 131.262V128.776H142.535V127.643H141.424V126.004Z" fill="#3E4042"/>
<path d="M7.873 181H9.369L7.609 177.788C8.698 177.524 9.369 176.677 9.369 175.566C9.369 174.246 8.434 173.201 6.927 173.201H3.935V181H5.266V177.92H6.234L7.873 181ZM5.266 176.754V174.367H6.685C7.499 174.367 8.027 174.84 8.027 175.566C8.027 176.281 7.499 176.754 6.685 176.754H5.266ZM10.2626 179.548C10.2626 180.395 10.9556 181.165 12.0776 181.165C12.9466 181.165 13.4746 180.725 13.7276 180.318C13.7276 180.747 13.7716 180.967 13.7826 181H14.9706C14.9596 180.945 14.9046 180.626 14.9046 180.142V177.48C14.9046 176.413 14.2776 175.478 12.6276 175.478C11.3076 175.478 10.4716 176.303 10.3726 177.227L11.5386 177.491C11.5936 176.952 11.9676 176.523 12.6386 176.523C13.3426 176.523 13.6506 176.886 13.6506 177.337C13.6506 177.524 13.5626 177.678 13.2546 177.722L11.8796 177.931C10.9666 178.063 10.2626 178.591 10.2626 179.548ZM12.3196 180.164C11.8136 180.164 11.5386 179.834 11.5386 179.471C11.5386 179.031 11.8576 178.811 12.2536 178.745L13.6506 178.536V178.778C13.6506 179.823 13.0346 180.164 12.3196 180.164ZM17.7231 177.909C17.7231 177.205 18.1081 176.644 18.8341 176.644C19.6371 176.644 19.9341 177.172 19.9341 177.832V181H21.2101V177.612C21.2101 176.435 20.5831 175.489 19.2741 175.489C18.6801 175.489 18.0421 175.742 17.6901 176.358V175.643H16.4471V181H17.7231V177.909ZM27.7795 175.643H26.0855L24.0285 177.81V173.036H22.7635V181H24.0285V179.504L24.6885 178.811L26.2615 181H27.8235L25.5795 177.909L27.7795 175.643ZM32.2124 175.544C32.2124 175.071 32.5534 174.741 32.9934 174.741C33.4334 174.741 33.7634 175.071 33.7634 175.544C33.7634 176.017 33.4334 176.358 32.9934 176.358C32.5534 176.358 32.2124 176.017 32.2124 175.544ZM31.1894 175.544C31.1894 176.534 32.0144 177.304 32.9824 177.304C33.9614 177.304 34.7974 176.545 34.7974 175.544C34.7974 174.554 33.9614 173.773 32.9934 173.773C32.0144 173.773 31.1894 174.554 31.1894 175.544ZM36.8104 179.339C36.8104 178.866 37.1514 178.536 37.5914 178.536C38.0314 178.536 38.3614 178.866 38.3614 179.339C38.3614 179.812 38.0314 180.153 37.5914 180.153C37.1514 180.153 36.8104 179.812 36.8104 179.339ZM35.7874 179.339C35.7874 180.329 36.6124 181.099 37.5804 181.099C38.5594 181.099 39.3954 180.34 39.3954 179.339C39.3954 178.349 38.5594 177.568 37.5914 177.568C36.6124 177.568 35.7874 178.349 35.7874 179.339ZM33.3344 181L38.4054 173.872H37.2614L32.1794 181H33.3344Z" fill="#777777"/>
<rect x="3" y="195" width="140" height="10" rx="5" fill="#F2F4F6"/>
<rect x="5" y="197" width="136" height="6" rx="3" fill="#61CD84"/>
<path d="M102.744 181V179.768H99.2462V177.7H102.414V176.501H99.2462V174.433H102.744V173.201H97.9262V181H102.744ZM103.515 181H104.978C105.077 180.835 106.078 179.372 106.188 179.207L107.431 181H108.927L106.98 178.272L108.861 175.643H107.409L106.243 177.359C106.144 177.205 105.165 175.808 105.066 175.643H103.548L105.462 178.294L103.515 181ZM112.029 176.655C112.843 176.655 113.206 177.183 113.327 177.656L114.471 177.238C114.251 176.38 113.459 175.478 112.018 175.478C110.478 175.478 109.279 176.666 109.279 178.316C109.279 179.944 110.478 181.165 112.051 181.165C113.459 181.165 114.262 180.252 114.515 179.416L113.393 179.009C113.272 179.416 112.887 179.999 112.051 179.999C111.248 179.999 110.555 179.394 110.555 178.316C110.555 177.238 111.248 176.655 112.029 176.655ZM116.486 177.733C116.53 177.161 116.992 176.545 117.795 176.545C118.675 176.545 119.093 177.106 119.115 177.733H116.486ZM119.258 179.13C119.082 179.658 118.686 180.065 117.916 180.065C117.124 180.065 116.486 179.482 116.453 178.668H120.369C120.38 178.646 120.402 178.47 120.402 178.261C120.402 176.567 119.434 175.478 117.784 175.478C116.431 175.478 115.177 176.6 115.177 178.294C115.177 180.109 116.464 181.165 117.916 181.165C119.203 181.165 120.05 180.406 120.336 179.471L119.258 179.13ZM122.897 181V173.036H121.621V181H122.897ZM125.819 181V173.036H124.543V181H125.819ZM128.356 177.733C128.4 177.161 128.862 176.545 129.665 176.545C130.545 176.545 130.963 177.106 130.985 177.733H128.356ZM131.128 179.13C130.952 179.658 130.556 180.065 129.786 180.065C128.994 180.065 128.356 179.482 128.323 178.668H132.239C132.25 178.646 132.272 178.47 132.272 178.261C132.272 176.567 131.304 175.478 129.654 175.478C128.301 175.478 127.047 176.6 127.047 178.294C127.047 180.109 128.334 181.165 129.786 181.165C131.073 181.165 131.92 180.406 132.206 179.471L131.128 179.13ZM134.767 177.909C134.767 177.205 135.152 176.644 135.878 176.644C136.681 176.644 136.978 177.172 136.978 177.832V181H138.254V177.612C138.254 176.435 137.627 175.489 136.318 175.489C135.724 175.489 135.086 175.742 134.734 176.358V175.643H133.491V181H134.767V177.909ZM141.424 174.004H140.269V174.807C140.269 175.28 140.016 175.643 139.444 175.643H139.169V176.776H140.159V179.471C140.159 180.472 140.775 181.066 141.765 181.066C142.227 181.066 142.469 180.978 142.546 180.945V179.889C142.491 179.9 142.282 179.933 142.106 179.933C141.633 179.933 141.424 179.735 141.424 179.262V176.776H142.535V175.643H141.424V174.004Z" fill="#3E4042"/>
<path d="M3.935 221.201V229H6.817C8.269 229 9.237 228.098 9.237 226.844C9.237 225.92 8.665 225.205 7.84 224.985C8.511 224.743 8.995 224.127 8.995 223.302C8.995 222.081 8.115 221.201 6.619 221.201H3.935ZM5.244 224.501V222.323H6.41C7.213 222.323 7.675 222.752 7.675 223.412C7.675 224.061 7.213 224.501 6.443 224.501H5.244ZM5.244 227.878V225.612H6.63C7.444 225.612 7.895 226.085 7.895 226.756C7.895 227.449 7.378 227.878 6.586 227.878H5.244ZM10.6166 221.201V229H13.4986C14.9506 229 15.9186 228.098 15.9186 226.844C15.9186 225.92 15.3466 225.205 14.5216 224.985C15.1926 224.743 15.6766 224.127 15.6766 223.302C15.6766 222.081 14.7966 221.201 13.3006 221.201H10.6166ZM11.9256 224.501V222.323H13.0916C13.8946 222.323 14.3566 222.752 14.3566 223.412C14.3566 224.061 13.8946 224.501 13.1246 224.501H11.9256ZM11.9256 227.878V225.612H13.3116C14.1256 225.612 14.5766 226.085 14.5766 226.756C14.5766 227.449 14.0596 227.878 13.2676 227.878H11.9256ZM25.1528 223.027C24.9768 222.158 24.2618 221.036 22.4248 221.036C20.9728 221.036 19.7738 222.114 19.7738 223.423C19.7738 224.589 20.5658 225.37 21.7538 225.612L22.8538 225.843C23.5248 225.986 23.8988 226.393 23.8988 226.899C23.8988 227.504 23.4148 227.977 22.4798 227.977C21.3578 227.977 20.7748 227.229 20.6978 226.415L19.4658 226.767C19.5868 227.889 20.4998 229.165 22.4798 229.165C24.2618 229.165 25.2408 228.01 25.2408 226.8C25.2408 225.7 24.5038 224.831 23.1288 224.556L22.0068 224.325C21.4018 224.193 21.0938 223.819 21.0938 223.324C21.0938 222.73 21.6438 222.202 22.4358 222.202C23.4808 222.202 23.8878 222.917 23.9648 223.401L25.1528 223.027ZM28.0973 222.004H26.9423V222.807C26.9423 223.28 26.6893 223.643 26.1173 223.643H25.8423V224.776H26.8323V227.471C26.8323 228.472 27.4483 229.066 28.4383 229.066C28.9003 229.066 29.1423 228.978 29.2193 228.945V227.889C29.1643 227.9 28.9553 227.933 28.7793 227.933C28.3063 227.933 28.0973 227.735 28.0973 227.262V224.776H29.2083V223.643H28.0973V222.004ZM32.8196 228.021C32.0386 228.021 31.3236 227.427 31.3236 226.316C31.3236 225.205 32.0386 224.633 32.8196 224.633C33.6116 224.633 34.3156 225.205 34.3156 226.316C34.3156 227.438 33.6116 228.021 32.8196 228.021ZM32.8196 223.478C31.2246 223.478 30.0476 224.677 30.0476 226.316C30.0476 227.966 31.2246 229.165 32.8196 229.165C34.4256 229.165 35.6026 227.966 35.6026 226.316C35.6026 224.677 34.4256 223.478 32.8196 223.478ZM39.1677 224.655C39.9817 224.655 40.3447 225.183 40.4657 225.656L41.6097 225.238C41.3897 224.38 40.5977 223.478 39.1567 223.478C37.6167 223.478 36.4177 224.666 36.4177 226.316C36.4177 227.944 37.6167 229.165 39.1897 229.165C40.5977 229.165 41.4007 228.252 41.6537 227.416L40.5317 227.009C40.4107 227.416 40.0257 227.999 39.1897 227.999C38.3867 227.999 37.6937 227.394 37.6937 226.316C37.6937 225.238 38.3867 224.655 39.1677 224.655ZM47.8029 223.643H46.1089L44.0519 225.81V221.036H42.7869V229H44.0519V227.504L44.7119 226.811L46.2849 229H47.8469L45.6029 225.909L47.8029 223.643Z" fill="#777777"/>
<rect x="3" y="243" width="140" height="10" rx="5" fill="#F2F4F6"/>
<rect x="5" y="245" width="136" height="6" rx="3" fill="#61CD84"/>
<path d="M102.744 229V227.768H99.2462V225.7H102.414V224.501H99.2462V222.433H102.744V221.201H97.9262V229H102.744ZM103.515 229H104.978C105.077 228.835 106.078 227.372 106.188 227.207L107.431 229H108.927L106.98 226.272L108.861 223.643H107.409L106.243 225.359C106.144 225.205 105.165 223.808 105.066 223.643H103.548L105.462 226.294L103.515 229ZM112.029 224.655C112.843 224.655 113.206 225.183 113.327 225.656L114.471 225.238C114.251 224.38 113.459 223.478 112.018 223.478C110.478 223.478 109.279 224.666 109.279 226.316C109.279 227.944 110.478 229.165 112.051 229.165C113.459 229.165 114.262 228.252 114.515 227.416L113.393 227.009C113.272 227.416 112.887 227.999 112.051 227.999C111.248 227.999 110.555 227.394 110.555 226.316C110.555 225.238 111.248 224.655 112.029 224.655ZM116.486 225.733C116.53 225.161 116.992 224.545 117.795 224.545C118.675 224.545 119.093 225.106 119.115 225.733H116.486ZM119.258 227.13C119.082 227.658 118.686 228.065 117.916 228.065C117.124 228.065 116.486 227.482 116.453 226.668H120.369C120.38 226.646 120.402 226.47 120.402 226.261C120.402 224.567 119.434 223.478 117.784 223.478C116.431 223.478 115.177 224.6 115.177 226.294C115.177 228.109 116.464 229.165 117.916 229.165C119.203 229.165 120.05 228.406 120.336 227.471L119.258 227.13ZM122.897 229V221.036H121.621V229H122.897ZM125.819 229V221.036H124.543V229H125.819ZM128.356 225.733C128.4 225.161 128.862 224.545 129.665 224.545C130.545 224.545 130.963 225.106 130.985 225.733H128.356ZM131.128 227.13C130.952 227.658 130.556 228.065 129.786 228.065C128.994 228.065 128.356 227.482 128.323 226.668H132.239C132.25 226.646 132.272 226.47 132.272 226.261C132.272 224.567 131.304 223.478 129.654 223.478C128.301 223.478 127.047 224.6 127.047 226.294C127.047 228.109 128.334 229.165 129.786 229.165C131.073 229.165 131.92 228.406 132.206 227.471L131.128 227.13ZM134.767 225.909C134.767 225.205 135.152 224.644 135.878 224.644C136.681 224.644 136.978 225.172 136.978 225.832V229H138.254V225.612C138.254 224.435 137.627 223.489 136.318 223.489C135.724 223.489 135.086 223.742 134.734 224.358V223.643H133.491V229H134.767V225.909ZM141.424 222.004H140.269V222.807C140.269 223.28 140.016 223.643 139.444 223.643H139.169V224.776H140.159V227.471C140.159 228.472 140.775 229.066 141.765 229.066C142.227 229.066 142.469 228.978 142.546 228.945V227.889C142.491 227.9 142.282 227.933 142.106 227.933C141.633 227.933 141.424 227.735 141.424 227.262V224.776H142.535V223.643H141.424V222.004Z" fill="#3E4042"/>
<path d="M155.277 229V221.201H153.935V229H155.277ZM158.654 222.004H157.499V222.807C157.499 223.28 157.246 223.643 156.674 223.643H156.399V224.776H157.389V227.471C157.389 228.472 158.005 229.066 158.995 229.066C159.457 229.066 159.699 228.978 159.776 228.945V227.889C159.721 227.9 159.512 227.933 159.336 227.933C158.863 227.933 158.654 227.735 158.654 227.262V224.776H159.765V223.643H158.654V222.004ZM161.913 225.733C161.957 225.161 162.419 224.545 163.222 224.545C164.102 224.545 164.52 225.106 164.542 225.733H161.913ZM164.685 227.13C164.509 227.658 164.113 228.065 163.343 228.065C162.551 228.065 161.913 227.482 161.88 226.668H165.796C165.807 226.646 165.829 226.47 165.829 226.261C165.829 224.567 164.861 223.478 163.211 223.478C161.858 223.478 160.604 224.6 160.604 226.294C160.604 228.109 161.891 229.165 163.343 229.165C164.63 229.165 165.477 228.406 165.763 227.471L164.685 227.13ZM168.314 229V225.821C168.314 225.139 168.743 224.633 169.425 224.633C170.151 224.633 170.459 225.117 170.459 225.733V229H171.713V225.821C171.713 225.161 172.153 224.633 172.824 224.633C173.539 224.633 173.858 225.106 173.858 225.733V229H175.09V225.524C175.09 224.105 174.166 223.489 173.198 223.489C172.505 223.489 171.878 223.731 171.46 224.435C171.174 223.808 170.558 223.489 169.854 223.489C169.249 223.489 168.578 223.775 168.27 224.325V223.643H167.049V229H168.314ZM184.617 223.027C184.441 222.158 183.726 221.036 181.889 221.036C180.437 221.036 179.238 222.114 179.238 223.423C179.238 224.589 180.03 225.37 181.218 225.612L182.318 225.843C182.989 225.986 183.363 226.393 183.363 226.899C183.363 227.504 182.879 227.977 181.944 227.977C180.822 227.977 180.239 227.229 180.162 226.415L178.93 226.767C179.051 227.889 179.964 229.165 181.944 229.165C183.726 229.165 184.705 228.01 184.705 226.8C184.705 225.7 183.968 224.831 182.593 224.556L181.471 224.325C180.866 224.193 180.558 223.819 180.558 223.324C180.558 222.73 181.108 222.202 181.9 222.202C182.945 222.202 183.352 222.917 183.429 223.401L184.617 223.027ZM188.222 224.655C189.036 224.655 189.399 225.183 189.52 225.656L190.664 225.238C190.444 224.38 189.652 223.478 188.211 223.478C186.671 223.478 185.472 224.666 185.472 226.316C185.472 227.944 186.671 229.165 188.244 229.165C189.652 229.165 190.455 228.252 190.708 227.416L189.586 227.009C189.465 227.416 189.08 227.999 188.244 227.999C187.441 227.999 186.748 227.394 186.748 226.316C186.748 225.238 187.441 224.655 188.222 224.655ZM194.142 228.021C193.361 228.021 192.646 227.427 192.646 226.316C192.646 225.205 193.361 224.633 194.142 224.633C194.934 224.633 195.638 225.205 195.638 226.316C195.638 227.438 194.934 228.021 194.142 228.021ZM194.142 223.478C192.547 223.478 191.37 224.677 191.37 226.316C191.37 227.966 192.547 229.165 194.142 229.165C195.748 229.165 196.925 227.966 196.925 226.316C196.925 224.677 195.748 223.478 194.142 223.478ZM201.293 223.61C201.238 223.599 201.106 223.577 200.952 223.577C200.248 223.577 199.654 223.918 199.401 224.501V223.643H198.158V229H199.434V226.448C199.434 225.447 199.885 224.875 200.875 224.875C201.007 224.875 201.15 224.886 201.293 224.908V223.61ZM203.195 225.733C203.239 225.161 203.701 224.545 204.504 224.545C205.384 224.545 205.802 225.106 205.824 225.733H203.195ZM205.967 227.13C205.791 227.658 205.395 228.065 204.625 228.065C203.833 228.065 203.195 227.482 203.162 226.668H207.078C207.089 226.646 207.111 226.47 207.111 226.261C207.111 224.567 206.143 223.478 204.493 223.478C203.14 223.478 201.886 224.6 201.886 226.294C201.886 228.109 203.173 229.165 204.625 229.165C205.912 229.165 206.759 228.406 207.045 227.471L205.967 227.13ZM210.762 225.48C210.762 227.944 211.741 229.616 212.973 230.848L213.721 230.177C212.577 228.923 211.84 227.449 211.84 225.48C211.84 223.522 212.577 222.048 213.721 220.794L212.973 220.112C211.741 221.344 210.762 223.016 210.762 225.48ZM216.752 224.842C216.048 224.831 215.586 224.391 215.586 223.797C215.586 223.258 216.026 222.785 216.752 222.785C217.478 222.785 217.929 223.258 217.929 223.797C217.929 224.391 217.467 224.831 216.752 224.842ZM216.752 228.054C215.894 228.054 215.421 227.548 215.421 226.965C215.421 226.382 215.894 225.865 216.752 225.865C217.621 225.865 218.094 226.382 218.094 226.965C218.094 227.548 217.621 228.054 216.752 228.054ZM216.752 229.165C218.391 229.165 219.403 228.285 219.403 227.097C219.403 226.283 218.831 225.612 218.083 225.348C218.765 225.095 219.238 224.413 219.238 223.72C219.238 222.532 218.182 221.707 216.752 221.707C215.322 221.707 214.277 222.532 214.277 223.72C214.277 224.424 214.75 225.095 215.432 225.348C214.673 225.612 214.112 226.283 214.112 227.097C214.112 228.285 215.124 229.165 216.752 229.165ZM221.608 224.545C221.597 224.424 221.575 224.292 221.575 224.182C221.575 223.445 221.982 222.862 222.818 222.862C223.621 222.862 224.017 223.39 224.017 223.973C224.017 224.49 223.742 224.919 223.104 225.315L221.927 226.052C220.684 226.822 220.255 227.779 220.233 229H225.392V227.834H221.861C221.96 227.482 222.246 227.229 222.587 227.02L223.973 226.162C224.831 225.634 225.348 224.875 225.348 223.951C225.348 222.73 224.413 221.707 222.84 221.707C221.223 221.707 220.299 222.818 220.299 224.05C220.299 224.193 220.321 224.358 220.332 224.457L221.608 224.545ZM227.34 223.544C227.34 223.071 227.681 222.741 228.121 222.741C228.561 222.741 228.891 223.071 228.891 223.544C228.891 224.017 228.561 224.358 228.121 224.358C227.681 224.358 227.34 224.017 227.34 223.544ZM226.317 223.544C226.317 224.534 227.142 225.304 228.11 225.304C229.089 225.304 229.925 224.545 229.925 223.544C229.925 222.554 229.089 221.773 228.121 221.773C227.142 221.773 226.317 222.554 226.317 223.544ZM231.938 227.339C231.938 226.866 232.279 226.536 232.719 226.536C233.159 226.536 233.489 226.866 233.489 227.339C233.489 227.812 233.159 228.153 232.719 228.153C232.279 228.153 231.938 227.812 231.938 227.339ZM230.915 227.339C230.915 228.329 231.74 229.099 232.708 229.099C233.687 229.099 234.523 228.34 234.523 227.339C234.523 226.349 233.687 225.568 232.719 225.568C231.74 225.568 230.915 226.349 230.915 227.339ZM228.462 229L233.533 221.872H232.389L227.307 229H228.462ZM237.943 225.48C237.943 223.016 236.975 221.344 235.732 220.112L234.984 220.794C236.139 222.048 236.865 223.522 236.865 225.48C236.865 227.449 236.139 228.923 234.984 230.177L235.732 230.848C236.975 229.616 237.943 227.944 237.943 225.48Z" fill="#777777"/>
<rect x="153" y="243" width="140" height="10" rx="5" fill="#F2F4F6"/>
<rect x="155" y="245" width="136" height="6" rx="3" fill="#61CD84"/>
<path d="M252.744 229V227.768H249.246V225.7H252.414V224.501H249.246V222.433H252.744V221.201H247.926V229H252.744ZM253.515 229H254.978C255.077 228.835 256.078 227.372 256.188 227.207L257.431 229H258.927L256.98 226.272L258.861 223.643H257.409L256.243 225.359C256.144 225.205 255.165 223.808 255.066 223.643H253.548L255.462 226.294L253.515 229ZM262.029 224.655C262.843 224.655 263.206 225.183 263.327 225.656L264.471 225.238C264.251 224.38 263.459 223.478 262.018 223.478C260.478 223.478 259.279 224.666 259.279 226.316C259.279 227.944 260.478 229.165 262.051 229.165C263.459 229.165 264.262 228.252 264.515 227.416L263.393 227.009C263.272 227.416 262.887 227.999 262.051 227.999C261.248 227.999 260.555 227.394 260.555 226.316C260.555 225.238 261.248 224.655 262.029 224.655ZM266.486 225.733C266.53 225.161 266.992 224.545 267.795 224.545C268.675 224.545 269.093 225.106 269.115 225.733H266.486ZM269.258 227.13C269.082 227.658 268.686 228.065 267.916 228.065C267.124 228.065 266.486 227.482 266.453 226.668H270.369C270.38 226.646 270.402 226.47 270.402 226.261C270.402 224.567 269.434 223.478 267.784 223.478C266.431 223.478 265.177 224.6 265.177 226.294C265.177 228.109 266.464 229.165 267.916 229.165C269.203 229.165 270.05 228.406 270.336 227.471L269.258 227.13ZM272.897 229V221.036H271.621V229H272.897ZM275.819 229V221.036H274.543V229H275.819ZM278.356 225.733C278.4 225.161 278.862 224.545 279.665 224.545C280.545 224.545 280.963 225.106 280.985 225.733H278.356ZM281.128 227.13C280.952 227.658 280.556 228.065 279.786 228.065C278.994 228.065 278.356 227.482 278.323 226.668H282.239C282.25 226.646 282.272 226.47 282.272 226.261C282.272 224.567 281.304 223.478 279.654 223.478C278.301 223.478 277.047 224.6 277.047 226.294C277.047 228.109 278.334 229.165 279.786 229.165C281.073 229.165 281.92 228.406 282.206 227.471L281.128 227.13ZM284.767 225.909C284.767 225.205 285.152 224.644 285.878 224.644C286.681 224.644 286.978 225.172 286.978 225.832V229H288.254V225.612C288.254 224.435 287.627 223.489 286.318 223.489C285.724 223.489 285.086 223.742 284.734 224.358V223.643H283.491V229H284.767V225.909ZM291.424 222.004H290.269V222.807C290.269 223.28 290.016 223.643 289.444 223.643H289.169V224.776H290.159V227.471C290.159 228.472 290.775 229.066 291.765 229.066C292.227 229.066 292.469 228.978 292.546 228.945V227.889C292.491 227.9 292.282 227.933 292.106 227.933C291.633 227.933 291.424 227.735 291.424 227.262V224.776H292.535V223.643H291.424V222.004Z" fill="#3E4042"/>
<path d="M159.27 133H160.711L157.675 125.201H156.146L153.11 133H154.507L155.233 131.042H158.533L159.27 133ZM156.883 126.631L158.071 129.821H155.695L156.883 126.631ZM162.878 133V129.821C162.878 129.139 163.307 128.633 163.989 128.633C164.715 128.633 165.023 129.117 165.023 129.733V133H166.277V129.821C166.277 129.161 166.717 128.633 167.388 128.633C168.103 128.633 168.422 129.106 168.422 129.733V133H169.654V129.524C169.654 128.105 168.73 127.489 167.762 127.489C167.069 127.489 166.442 127.731 166.024 128.435C165.738 127.808 165.122 127.489 164.418 127.489C163.813 127.489 163.142 127.775 162.834 128.325V127.643H161.613V133H162.878ZM170.887 131.548C170.887 132.395 171.58 133.165 172.702 133.165C173.571 133.165 174.099 132.725 174.352 132.318C174.352 132.747 174.396 132.967 174.407 133H175.595C175.584 132.945 175.529 132.626 175.529 132.142V129.48C175.529 128.413 174.902 127.478 173.252 127.478C171.932 127.478 171.096 128.303 170.997 129.227L172.163 129.491C172.218 128.952 172.592 128.523 173.263 128.523C173.967 128.523 174.275 128.886 174.275 129.337C174.275 129.524 174.187 129.678 173.879 129.722L172.504 129.931C171.591 130.063 170.887 130.591 170.887 131.548ZM172.944 132.164C172.438 132.164 172.163 131.834 172.163 131.471C172.163 131.031 172.482 130.811 172.878 130.745L174.275 130.536V130.778C174.275 131.823 173.659 132.164 172.944 132.164ZM181.042 133V131.878H178.237L180.987 128.721V127.643H176.719V128.765H179.381L176.664 131.889V133H181.042ZM184.614 132.021C183.833 132.021 183.118 131.427 183.118 130.316C183.118 129.205 183.833 128.633 184.614 128.633C185.406 128.633 186.11 129.205 186.11 130.316C186.11 131.438 185.406 132.021 184.614 132.021ZM184.614 127.478C183.019 127.478 181.842 128.677 181.842 130.316C181.842 131.966 183.019 133.165 184.614 133.165C186.22 133.165 187.397 131.966 187.397 130.316C187.397 128.677 186.22 127.478 184.614 127.478ZM189.906 129.909C189.906 129.205 190.291 128.644 191.017 128.644C191.82 128.644 192.117 129.172 192.117 129.832V133H193.393V129.612C193.393 128.435 192.766 127.489 191.457 127.489C190.863 127.489 190.225 127.742 189.873 128.358V127.643H188.63V133H189.906V129.909Z" fill="#777777"/>
<rect x="153" y="147" width="140" height="10" rx="5" fill="#F2F4F6"/>
<rect x="155" y="149" width="48" height="6" rx="3" fill="#FD5A49"/>
<path d="M272.106 128.787V126.367H273.481C274.317 126.367 274.823 126.84 274.823 127.588C274.823 128.325 274.317 128.787 273.481 128.787H272.106ZM273.679 129.953C275.175 129.953 276.165 128.952 276.165 127.577C276.165 126.213 275.175 125.201 273.679 125.201H270.786V133H272.106V129.953H273.679ZM279.26 132.021C278.479 132.021 277.764 131.427 277.764 130.316C277.764 129.205 278.479 128.633 279.26 128.633C280.052 128.633 280.756 129.205 280.756 130.316C280.756 131.438 280.052 132.021 279.26 132.021ZM279.26 127.478C277.665 127.478 276.488 128.677 276.488 130.316C276.488 131.966 277.665 133.165 279.26 133.165C280.866 133.165 282.043 131.966 282.043 130.316C282.043 128.677 280.866 127.478 279.26 127.478ZM285.63 132.021C284.849 132.021 284.134 131.427 284.134 130.316C284.134 129.205 284.849 128.633 285.63 128.633C286.422 128.633 287.126 129.205 287.126 130.316C287.126 131.438 286.422 132.021 285.63 132.021ZM285.63 127.478C284.035 127.478 282.858 128.677 282.858 130.316C282.858 131.966 284.035 133.165 285.63 133.165C287.236 133.165 288.413 131.966 288.413 130.316C288.413 128.677 287.236 127.478 285.63 127.478ZM292.781 127.61C292.726 127.599 292.594 127.577 292.44 127.577C291.736 127.577 291.142 127.918 290.889 128.501V127.643H289.646V133H290.922V130.448C290.922 129.447 291.373 128.875 292.363 128.875C292.495 128.875 292.638 128.886 292.781 128.908V127.61Z" fill="#3E4042"/>
<path d="M155.255 176.787V174.367H156.63C157.466 174.367 157.972 174.84 157.972 175.588C157.972 176.325 157.466 176.787 156.63 176.787H155.255ZM156.828 177.953C158.324 177.953 159.314 176.952 159.314 175.577C159.314 174.213 158.324 173.201 156.828 173.201H153.935V181H155.255V177.953H156.828ZM163.438 175.61C163.383 175.599 163.251 175.577 163.097 175.577C162.393 175.577 161.799 175.918 161.546 176.501V175.643H160.303V181H161.579V178.448C161.579 177.447 162.03 176.875 163.02 176.875C163.152 176.875 163.295 176.886 163.438 176.908V175.61ZM166.803 180.021C166.022 180.021 165.307 179.427 165.307 178.316C165.307 177.205 166.022 176.633 166.803 176.633C167.595 176.633 168.299 177.205 168.299 178.316C168.299 179.438 167.595 180.021 166.803 180.021ZM166.803 175.478C165.208 175.478 164.031 176.677 164.031 178.316C164.031 179.966 165.208 181.165 166.803 181.165C168.409 181.165 169.586 179.966 169.586 178.316C169.586 176.677 168.409 175.478 166.803 175.478ZM172.986 172.981C171.886 172.981 171.116 173.707 171.116 174.906V175.643H170.181V176.754H171.116V181H172.403V176.754H174.713V181H175.967V175.643H172.403V174.939C172.403 174.279 172.865 174.125 173.195 174.125C173.437 174.125 173.58 174.158 173.657 174.18V173.091C173.569 173.047 173.305 172.981 172.986 172.981ZM174.515 173.751C174.515 174.202 174.878 174.576 175.34 174.576C175.802 174.576 176.176 174.202 176.176 173.751C176.176 173.289 175.802 172.915 175.34 172.915C174.878 172.915 174.515 173.289 174.515 173.751ZM179.247 174.004H178.092V174.807C178.092 175.28 177.839 175.643 177.267 175.643H176.992V176.776H177.982V179.471C177.982 180.472 178.598 181.066 179.588 181.066C180.05 181.066 180.292 180.978 180.369 180.945V179.889C180.314 179.9 180.105 179.933 179.929 179.933C179.456 179.933 179.247 179.735 179.247 179.262V176.776H180.358V175.643H179.247V174.004Z" fill="#777777"/>
<rect x="153" y="195" width="140" height="10" rx="5" fill="#F2F4F6"/>
<rect x="155" y="197" width="136" height="6" rx="3" fill="#61CD84"/>
<path d="M272.106 176.787V174.367H273.481C274.317 174.367 274.823 174.84 274.823 175.588C274.823 176.325 274.317 176.787 273.481 176.787H272.106ZM273.679 177.953C275.175 177.953 276.165 176.952 276.165 175.577C276.165 174.213 275.175 173.201 273.679 173.201H270.786V181H272.106V177.953H273.679ZM279.26 180.021C278.479 180.021 277.764 179.427 277.764 178.316C277.764 177.205 278.479 176.633 279.26 176.633C280.052 176.633 280.756 177.205 280.756 178.316C280.756 179.438 280.052 180.021 279.26 180.021ZM279.26 175.478C277.665 175.478 276.488 176.677 276.488 178.316C276.488 179.966 277.665 181.165 279.26 181.165C280.866 181.165 282.043 179.966 282.043 178.316C282.043 176.677 280.866 175.478 279.26 175.478ZM285.63 180.021C284.849 180.021 284.134 179.427 284.134 178.316C284.134 177.205 284.849 176.633 285.63 176.633C286.422 176.633 287.126 177.205 287.126 178.316C287.126 179.438 286.422 180.021 285.63 180.021ZM285.63 175.478C284.035 175.478 282.858 176.677 282.858 178.316C282.858 179.966 284.035 181.165 285.63 181.165C287.236 181.165 288.413 179.966 288.413 178.316C288.413 176.677 287.236 175.478 285.63 175.478ZM292.781 175.61C292.726 175.599 292.594 175.577 292.44 175.577C291.736 175.577 291.142 175.918 290.889 176.501V175.643H289.646V181H290.922V178.448C290.922 177.447 291.373 176.875 292.363 176.875C292.495 176.875 292.638 176.886 292.781 176.908V175.61Z" fill="#3E4042"/>
</svg>
